<svg xmlns="http://www.w3.org/2000/svg" viewBox="0 0 53 53"><defs><style>.cls-1{fill:#fff;}</style></defs><title>github</title><g id="Camada_2" data-name="Camada 2"><g id="Camada_1-2" data-name="Camada 1"><path class="cls-1" d="M32.71,39.37c6.14-.88,10.33-4.62,10.74-12A10,10,0,0,0,43,22.73a18.2,18.2,0,0,1-1.92-9c.13-2.5-1.41-3.51-3.38-2.16-5.53,3.8-11.78.12-17.5,2-1,.33-2.5-1.08-3.79-1.64-3.68-1.61-5-.93-4.73,3,.2,2.6-.6,4.55-1.51,6.78-3.21,7.83,1.18,15.16,11.32,18-1.44,1.5-2.56,3.61-3.73,3.64a8.12,8.12,0,0,1-5.1-2.3C11,39.59,9.92,37.4,6.75,38.2c4,3.8,5.08,11,13,8.82L19.47,53C11,51.89,2.55,42.86.59,33.12c-3.2-16,6.88-30.53,22.8-32.87C38-1.9,51.88,10.09,53,25.79c.75,11.15-6.63,23-16.65,26.8-2.35.91-3.19.37-3.17-2.26C33.15,46.86,32.88,43.39,32.71,39.37Z"/></g></g></svg>