<svg xmlns="http://www.w3.org/2000/svg" xmlns:xlink="http://www.w3.org/1999/xlink" viewBox="0 0 373.56 453.77"><defs><style>.cls-1,.cls-18,.cls-19,.cls-21,.cls-22,.cls-24,.cls-26,.cls-30{fill:none;}.cls-2{isolation:isolate;}.cls-3{fill:#cfecff;}.cls-4{clip-path:url(#clip-path);}.cls-5{fill:#2034aa;}.cls-6{fill:#0f267a;}.cls-7{fill:#18004d;}.cls-8{fill:#fe9393;}.cls-9{fill:#e15f60;}.cls-10{fill:#506aff;}.cls-11{fill:#fff;}.cls-12{fill:#e9edf2;}.cls-13{fill:#4262ea;}.cls-14{fill:#102772;}.cls-15{fill:#435fea;}.cls-16{fill:#3155ba;}.cls-17{fill:#264c9e;}.cls-18{stroke:#435fea;stroke-width:0.63px;}.cls-18,.cls-19,.cls-21,.cls-22,.cls-24,.cls-26{stroke-miterlimit:10;}.cls-19{stroke:#cfecff;stroke-width:0.3px;}.cls-19,.cls-21,.cls-22,.cls-24,.cls-26,.cls-30{stroke-linecap:round;}.cls-20{fill:#31216d;}.cls-21{stroke:#52a5e8;stroke-width:1.09px;}.cls-22,.cls-26,.cls-30{stroke:#fff;}.cls-22,.cls-24{stroke-width:0.97px;}.cls-23{fill:#3f49a5;}.cls-24{stroke:#3f49a5;}.cls-25{fill:#9dbeed;}.cls-26{stroke-width:0.97px;}.cls-27{fill:#b8e2f4;}.cls-28{fill:#aba6e2;}.cls-29{fill:#eb5d62;}.cls-30{stroke-linejoin:round;stroke-width:0.6px;}.cls-31{fill:#a1a1e5;opacity:0.63;mix-blend-mode:multiply;}</style><clipPath id="clip-path"><rect class="cls-1" x="3.08" y="12.76" width="359.45" height="235.68"/></clipPath></defs><title>home</title><g class="cls-2"><g id="Camada_2" data-name="Camada 2"><g id="Camada_1-2" data-name="Camada 1"><path class="cls-3" d="M13.17,248.74s-26.4-31.69,14.71-77.32,14.61-74.9,48.18-127.7,118.19-59,155.88,2.85c10.28,16.88,46.39,59.59,71.66,72,20.49,10.09,68.48,17.63,69.95,78.28.35,14-9,39.34-21.29,51.85Z"/><g class="cls-4"><path class="cls-5" d="M130.88,260.27H105.34l-.87-2.08h0l-4.75-11.53V213.6h24.6S129.12,239.79,130.88,260.27Z"/><path class="cls-6" d="M104.47,258.18,99.74,251l0-11.58,4-6.92S104.51,249,104.47,258.18Z"/><path class="cls-5" d="M70.84,211.07a50.54,50.54,0,0,0-4.34,15c-.81,6.47.73,32.6.73,32.6l25.69,4.44s8.66-17,14.38-44.88c2.58-12.62-22.23-6.76-22.23-6.76"/><path class="cls-7" d="M121.47,66s.62,5.47-1.21,9.38-4.15-8.28-4.15-8.28l1.24-4.39"/><path class="cls-8" d="M107.37,92.78s-.26.77-.65,2-1,3.29-1.52,5.39a34.3,34.3,0,0,0-1.24,9.39s-9.95,1-14.83-2.06c0,0,3-11.92-1.31-23.6Z"/><path class="cls-9" d="M106.72,94.79c-.43,1.36-1,3.29-1.52,5.39-8.63-2.8-13.54-10.53-13.54-10.53Z"/><path class="cls-8" d="M89.41,89.66c3.93,4.56,26,13.8,29.09,2.86s1.58-23.91,0-31.8c-1-4.9-3.59-14.23-16.66-12.78S72.17,69.64,89.41,89.66Z"/><path class="cls-7" d="M82.93,59.53s-10.61,1-12.58-5.77,5.58-15.38,12.24-11.82,6,12.28,6,12.28"/><path class="cls-10" d="M78.36,60.39s1.12-10.07,10.7-11.89l-3.59,6Z"/><path class="cls-7" d="M116.88,57.87s-3.64,15.68-25.41,16.34a2.48,2.48,0,0,0-3,1.29A6.79,6.79,0,0,0,88.41,80c1.34,4.19,2.19,8.52,1.49,12.87l0,.5S79.15,92,76.22,76.49c-3.4-18,13-32.52,24.18-30.79C105.12,46.43,115.89,50.4,116.88,57.87Z"/><path class="cls-7" d="M109.91,57.52s6.78,9.33,12,9.59c0,0,1.69-12.71-5.51-17.87-9.84-7-21-3.35-21-3.35"/><path class="cls-8" d="M89.7,104.73a3.82,3.82,0,0,1-1.88,2.73,66.34,66.34,0,0,1-9.45,4.39s20.77,14.92,36.11-1c0,0-5.55-1.69-7.1-2.81-3.72-2.69-3-4-3-4"/><path class="cls-8" d="M115.9,143.58s3.62,11,6.58,19.3a40,40,0,0,0,4,8.47c1.56,2,3.65,4.41,7.4,2.42s4.32-3.72,3.65-7.52-7-26.3-7-26.3"/><path class="cls-8" d="M122.48,162.88s5.17,17.53,12.54,15.89c3.83-1,10.53-15.65,13.54-21.46,9.48-18.29,10.24-22.4,10.24-22.4L154,132.68s-19,24.38-20.47,26.69"/><path class="cls-11" d="M124.33,213.61c-23.39,5.19-44.94,1.93-54.69.23-1.14-3.22.45-8.49,1.71-13.41,3.82-15.09,2.05-32.55.71-42.89-.53-4.15-1-7.15-1-8.39,0-1-.07-2.28-.18-3.74-.69-9-3-25-3.21-27.16-.23-2.5,14.21-8,14.21-8s25.59,15.43,27.22-1.48a91.55,91.55,0,0,1,12.65,5.06c1.08,7.38,1.62,23.44,1.83,31.74.09,3.18-2.66,9.15-2.66,9.15s.41,25,1.68,43.23C123.06,204.57,124.67,211.06,124.33,213.61Z"/><path class="cls-12" d="M78.17,137.3s-.34,12.84-1.93,19.59a11.4,11.4,0,0,1-4.18.65c-.53-4.15-1-7.15-1-8.39,0-1-.07-2.28-.18-3.74Z"/><polygon class="cls-13" points="105.42 207.1 66.57 202.94 73.05 146.28 111.91 150.45 105.42 207.1"/><polygon class="cls-10" points="102.61 206.8 63.75 202.63 70.23 145.98 109.09 150.14 102.61 206.8"/><path class="cls-8" d="M60.31,142.45S59,154,58.21,162.74a39,39,0,0,0,.13,9.38c.58,2.46,1.47,5.54,5.7,5.3s5.48-1.57,6.46-5.3,4.62-26.84,4.62-26.84"/><path class="cls-8" d="M58.17,163.18s-1.6,12.95,2.72,17c2.81,1.81,9.13,2.3,15.64,2.93,20.51,2,24.61,1.17,24.61,1.17l.28-5.27S71.73,170.52,69,170"/><path class="cls-8" d="M98.41,178.2a7.89,7.89,0,0,0,4.44,0c1.08-.37,2.34-1.21,3-1.42a16.13,16.13,0,0,1,4.42.67c.48.19,0,1-.52,1.16a11,11,0,0,1-1.91.16l-1.23,1.08-.27,6.4a6.41,6.41,0,0,1-2.52.29c-1.75,0-3.23-1.74-6.75-2"/><path class="cls-8" d="M108.26,178.36s1.43.57,1.54,1.06-.41,5.84-1.26,6.48c-.53.39-3.4.55-3.4.55l-.36-1.94s-.07-4,0-4.1,1.7-1.46,1.7-1.46l1.78-.59"/><path class="cls-8" d="M93.67,74.81s-.67-4.83-5-3.24c-3.4,1.24-1.12,7.64.16,9.82s3.87,1.6,4.25,0"/><path class="cls-11" d="M135.05,152.89s-6.8-36.31-13.31-39.06c.6,4.13-5.3,14.25-4.85,21.69a101.81,101.81,0,0,0,3.39,20.27C129.78,155.38,135.05,152.89,135.05,152.89Z"/><path class="cls-11" d="M71.75,114.79S61.57,119,58.69,134C56,148.14,55.54,154,55.54,154s11.89,3.74,19.1,1.77c1.35-4.65,3.73-19.63,3.73-19.63"/><path class="cls-12" d="M117.65,126.7s3.37,7.34,5.09,12.38-1.83,15.64-1.83,15.64,3.86-6.8,3.38-14S117.65,126.7,117.65,126.7Z"/><path class="cls-8" d="M152.31,134.87a13,13,0,0,0,1.2-2.56c.12-2.56.14-9.62,1.54-12.18a1.16,1.16,0,0,1,1.4.87c.42,1.16-.51,3.26-.09,4.33s1,.6,1.82,0a24,24,0,0,0,3.43-5c.43-1.36,1.1-2.88,1.39-2.87.79,0,.65,1.15.58,2.1a16.63,16.63,0,0,1-.51,1.86,14.2,14.2,0,0,1-1.17,2.63s.58-.86,1.69-2.17c.36-.81.74-1.43,1.18-2.53.38-1.36,1.06-1.56,1.36-1.28s0,1.31-.43,2.94a10.4,10.4,0,0,1-1.13,2.47c-.75,1.15-1.38,2-1.38,2s.75-1,1.67-2.07a13.09,13.09,0,0,0,1.46-2.48c.16-1.74,1.08-2.35,1.32-2a6.2,6.2,0,0,1-.13,2.79,7,7,0,0,1-.94,2.43c-.9,1.29-1.84,2.47-1.84,2.47s2.65-3.56,3.12-3.07-2,4.24-2.75,5.4a13.87,13.87,0,0,1-3.71,3.86c-1,.44-3.25,4.17-3.54,5"/><path class="cls-8" d="M166.39,124.49s1-1.87,1.21-2.06.63-.67,1-.35-1.14,3.06-1.14,3.06"/><path class="cls-7" d="M115.71,59.22a8.44,8.44,0,0,1-.16,1.25c-.08.39-.19.87-.34,1.4a13,13,0,0,1-.64,1.78,19.84,19.84,0,0,1-1,2,16.72,16.72,0,0,1-3.36,4,9.9,9.9,0,0,1-1.1.83c-.39.27-.76.55-1.15.79a26.17,26.17,0,0,1-2.5,1.22l-1.28.45a7.28,7.28,0,0,1-1.26.38c-.85.19-1.67.36-2.45.5L98.23,74c-.34,0-.67.06-1,.07l-.89,0-1.44-.06-1.25-.07,1.25-.1,1.43-.1.87-.06,1-.14,2.15-.33,2.35-.61c.82-.19,1.59-.6,2.43-.88a26.13,26.13,0,0,0,2.37-1.18c.38-.23.73-.49,1.1-.74a9.34,9.34,0,0,0,1.06-.78l1-.86a10.65,10.65,0,0,0,.87-.91A21.13,21.13,0,0,0,113,65.3a18.76,18.76,0,0,0,1.1-1.86,18.35,18.35,0,0,0,.78-1.67c.21-.51.37-1,.48-1.34C115.62,59.67,115.71,59.22,115.71,59.22Z"/><circle class="cls-11" cx="90.24" cy="81.21" r="1.03"/><path class="cls-9" d="M89.09,74.5a1.69,1.69,0,0,1,2.09.76c1.16,1.67.87,3.44-.43,3.19-.72-.14-.8-1.16-.48-1.74a.9.9,0,0,1,1-.43S90.85,74.27,89.09,74.5Z"/><path class="cls-8" d="M245.06,420.29v15.33a21.59,21.59,0,0,0,9.8,0l.73-17.14"/><path class="cls-5" d="M255,433.56s-1.33,1.38-6.14,1.21a6.47,6.47,0,0,0-5.93-1s-4.82,4.21-8.24,4.9-7.41,1.1-8.34,2.61a3.15,3.15,0,0,0-.58,2.49s-.23.64,3.94.81,17.55-.4,19.87-.29,5.44.18,6.89-.29S257.74,436.23,255,433.56Z"/><path class="cls-5" d="M280.59,257.92a76.46,76.46,0,0,1-.84,7.8c-.75,4.51-2.64,11.66-4.93,19.65-3.95,13.73-9.13,29.9-12,39.25C274,347.54,258,423.41,256,429.71a24.28,24.28,0,0,1-11.85-.61c-2.38-35-6.49-106.06-6.45-107.76.93-36,5.34-69.13,5.7-74.42s.92-34.85,3.45-35.85c5.6-2.09,20.1-6.91,26.65,2.61C280.34,223.68,281.42,244.5,280.59,257.92Z"/><path class="cls-14" d="M280.59,257.92a76.46,76.46,0,0,1-.84,7.8c-.75,4.51-2.64,11.66-4.93,19.65-.69-11.33-2-42.79-2-42.79Z"/><path class="cls-8" d="M291.29,426.47l1.1,15.29a21.66,21.66,0,0,0,9.77-.7l-.5-17.16"/><path class="cls-5" d="M306.24,448.25c-1.25.82-4.29,1.61-6.58,2.11-1.26.25-5.75,1.64-10.18,3a10.66,10.66,0,0,1-5.38.15L277.7,452a1.43,1.43,0,0,1-1.28-1.7c.39-1.32,1.78-2.18,3.74-2.1a8.56,8.56,0,0,0,1.5-.09,10.67,10.67,0,0,0,6-3.1c1.63-1.62,2.84-3.08,2.84-3.08a6.49,6.49,0,0,1,6-.56c4.69-1.12,5.59-2.79,5.59-2.79C305.47,440.44,307.51,447.43,306.24,448.25Z"/><path class="cls-5" d="M303,434.25a16.62,16.62,0,0,1-12.35.85c.66,1.58-15-78.88-16.84-94.9-.1-1-.54-5.3-.64-6.72-.7-8.34.33-49.75.05-66.1l.52-52.2s-15.43-1.43-4.57.43c13.8,2.33,32.35-.52,32.35-.52,18.2,24.61,15.13,47.35,11.63,58.26a105.72,105.72,0,0,0-3.42,13.46c-3,16.81-11,38.42-12.91,49.68C313.57,376.09,304.43,421.69,303,434.25Z"/><path class="cls-8" d="M187.76,168.9l-8-1.92a19.68,19.68,0,0,1-4.4-4,9,9,0,0,0-7.52-2.72c-.83,0-.9,1.08.57,2.08,1,.67,2.69.36,3.27,2.65.26,1-2.63,1.06-4.12.56s-6.55-2.91-7.85-3.46-2.38.29,1,2.77a44.07,44.07,0,0,0,5.39,3.47,16,16,0,0,0,1.19,2.11,1.49,1.49,0,0,0,.6.39,13,13,0,0,0,1.12,2,1,1,0,0,0,.26.22c.31.65.6,1.28.87,1.82,1,2.1,5.1,1.51,6.88,1.28s9.42,1.5,9.42,1.5Z"/><path class="cls-8" d="M168.26,168.22a20,20,0,0,1-5.11-1.07c-3-1-6.83-3.13-7.61-3.22s-.87.91,0,1.7a29.82,29.82,0,0,0,4.74,2.91,91.24,91.24,0,0,0,8.92,2.7"/><path class="cls-8" d="M169.31,170.33a20.07,20.07,0,0,1-5.2-.48c-3.09-.66-7.14-2.35-7.92-2.34s-.77,1,.19,1.68a29.34,29.34,0,0,0,5,2.36c1.74.64,9.16,2.47,9.16,2.47"/><path class="cls-8" d="M171.83,173.43a20.07,20.07,0,0,1-5.2-.48c-3.09-.66-7.13-2.35-7.92-2.35s-.76,1,.19,1.69a29.34,29.34,0,0,0,5,2.36,92.46,92.46,0,0,0,9.16,1.67"/><path class="cls-15" d="M260.15,144c-4.89,12.12-16.86,31.67-16.86,31.67-7.76.67-18.21-3-18.21-3,1.35-14.69,14.6-54.44,14.6-54.44s.8-6.27,17.81-10.71"/><path class="cls-15" d="M232.48,171.94l-47.4-4.17-1.74,9.82s35.84,13.75,49.24,13.74c11,0,19.64-31.14,19.64-31.14Z"/><path class="cls-16" d="M243.06,128.76s-2.38,36-3.45,58.49a44,44,0,0,0,5.16-7.9Z"/><path class="cls-15" d="M307,168.26c-.79,4.21-2.14,11.19-3.39,18.14-.46,2.63-.93,5.25-1.34,7.72a43.05,43.05,0,0,0-.6,12.42c.92,5.54,2.05,8,.64,9.6-3.15,3.66-24.69,5.19-34.8,5.19-9,0-24.33-2.4-25.1-5.28-1.16-4.29.27-4.28.66-8.78s-2.18-88.29,1.36-92.36c4.18-3.47,10.83-6.84,17.49-9,4.73-.78,12.75-.44,21.2,1.76,9.81,2.53,21.21,4.69,22.91,8.41C307.65,119.57,309.38,155.77,307,168.26Z"/><path class="cls-17" d="M303.63,186.4c-.46,2.63-.93,5.25-1.34,7.72-16.84-6.84-45.2-21.49-46.06-22Z"/><path class="cls-16" d="M305.26,178.35l-4.55-25-5.06-9.11s.57,9.6,1.39,20.92c-11.91-1.68-36-3.88-36-3.88s22.29,7,23.19,7.16c.72.16,9.75,1.24,13.16,1.64.21,2.75.43,5.53.66,8.23Z"/><path class="cls-8" d="M243.06,158.37s-7.55,1.74-7.85,2.19,0,1.68,2.47,1.79a11,11,0,0,0,4.93-1.19"/><path class="cls-8" d="M241.87,162.64l-4.63,3.25s-2.88,3.74-2.73,4a1.37,1.37,0,0,0,1.89-.22c.86-.78,2.56-2.41,2.56-2.41l4.46-1.68"/><path class="cls-8" d="M243.79,163.87l-4.64,3.25s-2.88,3.74-2.73,4a1.38,1.38,0,0,0,1.89-.22c.86-.79,2.56-2.41,2.56-2.41l4.47-1.69"/><path class="cls-8" d="M245.79,165.08l-4.64,3.25s-2.88,3.74-2.73,4a1.37,1.37,0,0,0,1.89-.22c.86-.78,2.56-2.41,2.56-2.41l4.47-1.68"/><path class="cls-8" d="M260.52,163.36l-7.85-4s-8.23-1-9.4-1-6.9,4.15-7.72,4.5-4.23,6.59-4.23,6.59a1,1,0,0,0,1.05.6c.86,0,4.6-4.53,4.6-4.53l4.33-2.35a14.25,14.25,0,0,0,2.47,5.27c1.52,1.86,5.45,1.15,8.45.87a12,12,0,0,1,3.55.25"/><path class="cls-15" d="M326.56,184.83a13.87,13.87,0,0,0,.11-1.59c0-12.53-1.47-46-14.62-63.23-5.1-6.69-16.8-9.32-16.8-9.32l.25,31.09c.31,11.6,8.13,43.05,8.13,43.05Z"/><path class="cls-15" d="M255.61,165.13a19.65,19.65,0,0,0-.94,6.63s50,21.13,64.21,22.59h0l-.53-22.92L258.14,160.8A12.16,12.16,0,0,0,255.61,165.13Z"/><path class="cls-15" d="M318.88,194.35s8.43,1.65,7.79-12.51c-.56-12.48-11.72-9.17-11.72-9.17L312.41,183Z"/><path class="cls-8" d="M283.16,107.6l0,0s-9.51,7.18-21.2-1.75c0,0,1.48-2.82,1.73-3.33a25.46,25.46,0,0,0,2.72-7c.08-.23.12-.49.19-.76a28.81,28.81,0,0,0,.49-3.36,28.29,28.29,0,0,0-.18-6.88l1.13-.92,18.64-14.65,2.12-1.66s-.61,3.56-1.46,8.78c-.47,3-1,6.42-1.58,10.09C284.66,93.58,283.59,101.72,283.16,107.6Z"/><path class="cls-9" d="M280.24,86.58v0c-2.67,3.87-8.69,11.61-16.56,15.94a25.46,25.46,0,0,0,2.72-7,17.46,17.46,0,0,1-3.43.66c.05-.85.09-1.74.07-2.67l1.24-.74,2.8-1.37,14.72-7.17S281.27,85.13,280.24,86.58Z"/><path class="cls-7" d="M250.83,56.14s-3.24,8.88,2.55,13.93l2.77-13.53Z"/><path class="cls-8" d="M283.29,82.81a42.22,42.22,0,0,1-3.05,3.77v0a35.58,35.58,0,0,1-6.05,5.23,25.8,25.8,0,0,1-7.79,3.68,17.46,17.46,0,0,1-3.43.66,13.06,13.06,0,0,1-7.85-1.49c-4.64-6.89-4.47-18.07-3.41-26.56.41-3.43,1-6.42,1.43-8.51.41-1.89.72-3,.72-3s0-.15.05-.23c2-11,16.65-11.34,26.73-5.17a17.79,17.79,0,0,1,1.7,1.18,19.6,19.6,0,0,1,6.5,7.62c2.36,5.18.91,11.06-1.51,16.07l-.39.79A46.89,46.89,0,0,1,283.29,82.81Z"/><path class="cls-7" d="M283.89,50.37S272,68.76,252,59.09c-5.85-2.83-7.16-22.73-2-18.76,10.53,8.15,18.81-7.37,28.92-2.13C282.1,39.88,285.29,44,283.89,50.37Z"/><path class="cls-7" d="M279.92,52.7s-6.93,36.11.4,19.53c0,0,1.86-4.62,5.22-4.2s.66,12.85.2,18.11c0,0,7.7-5.5,10.53-21.89s-8.18-23.12-14.28-16Z"/><path class="cls-9" d="M284.88,70.61s-1.89.26-2.29,3.72,1.83,4.15,2.28,2.33-1.24-2.93-1.61-2.17A4.25,4.25,0,0,1,284.88,70.61Z"/><path class="cls-18" d="M249,68.56a2.41,2.41,0,0,1,2.33-1.89,20.05,20.05,0,0,1,5.48,1c1.34.6,2.15,1.71,1.16,4.42-.63,1.7-1.91,3.69-5.44,3.08C249.6,74.67,248.58,71.71,249,68.56Z"/><path class="cls-18" d="M263.81,68.5a24.64,24.64,0,0,1,6.88.9,2.83,2.83,0,0,1,1.86,3.34c-1,3.5-2.27,5.65-7.07,4.9-4-.62-4-4.87-3.83-7.31A2.12,2.12,0,0,1,263.81,68.5Z"/><path class="cls-18" d="M258.45,70.61a3.58,3.58,0,0,1,3.13.37"/><path class="cls-18" d="M272.62,72.39s6.79-.76,8.93-1.15"/><path class="cls-8" d="M280.09,72.73a10.22,10.22,0,0,1,2.76-3.92l-.15,2.25Z"/><path class="cls-7" d="M228.67,172.67H151.28a1.87,1.87,0,0,1-1.84-1.53l-10.36-55.63a2.57,2.57,0,0,1,2.54-3.05h73.69a2.57,2.57,0,0,1,2.54,2.1Z"/><path class="cls-7" d="M252.45,172.67H215.67v-3.14h35.22a2.28,2.28,0,0,1,2,1.14l.37.63A.91.91,0,0,1,252.45,172.67Z"/><path class="cls-19" d="M214.07,115.05a1.53,1.53,0,0,1,1.5,1.23l10.07,51.3"/><path class="cls-20" d="M185.45,143.16c0,2.26-2.45,4.09-5.48,4.09s-5.48-1.83-5.48-4.09,2.45-4.09,5.48-4.09S185.45,140.9,185.45,143.16Z"/></g><line class="cls-21" x1="0.55" y1="248.43" x2="362.54" y2="248.43"/><line class="cls-22" x1="179.92" y1="21.3" x2="184.58" y2="21.3"/><line class="cls-22" x1="182.25" y1="18.98" x2="182.25" y2="23.63"/><line class="cls-22" x1="215.13" y1="196.16" x2="219.79" y2="196.16"/><line class="cls-22" x1="217.46" y1="193.83" x2="217.46" y2="198.49"/><path class="cls-11" d="M224.06,55.69a2.14,2.14,0,1,1-2.13-2.13A2.14,2.14,0,0,1,224.06,55.69Z"/><path class="cls-11" d="M152.44,99.3a2.14,2.14,0,1,1-2.13-2.14A2.13,2.13,0,0,1,152.44,99.3Z"/><path class="cls-11" d="M126.44,21.3a2.14,2.14,0,1,1-2.13-2.13A2.13,2.13,0,0,1,126.44,21.3Z"/><path class="cls-3" d="M338.89,81.28a2.14,2.14,0,1,1-2.14-2.14A2.14,2.14,0,0,1,338.89,81.28Z"/><path class="cls-3" d="M298.51,95.88a2.14,2.14,0,1,1-2.13-2.13A2.14,2.14,0,0,1,298.51,95.88Z"/><path class="cls-3" d="M207.55,2.14A2.14,2.14,0,1,1,205.41,0,2.14,2.14,0,0,1,207.55,2.14Z"/><path class="cls-23" d="M363.51,168.16a2.14,2.14,0,1,1-2.13-2.14A2.13,2.13,0,0,1,363.51,168.16Z"/><path class="cls-11" d="M158.65,235.23a2.14,2.14,0,1,1-2.14-2.13A2.14,2.14,0,0,1,158.65,235.23Z"/><path class="cls-3" d="M25.36,164.3a2.14,2.14,0,1,1-2.14-2.13A2.14,2.14,0,0,1,25.36,164.3Z"/><line class="cls-24" x1="258.66" y1="6.64" x2="263.32" y2="6.64"/><line class="cls-24" x1="260.99" y1="4.31" x2="260.99" y2="8.97"/><line class="cls-24" x1="334.42" y1="53.36" x2="339.08" y2="53.36"/><line class="cls-24" x1="336.75" y1="51.03" x2="336.75" y2="55.69"/><line class="cls-24" x1="341.82" y1="224.45" x2="346.48" y2="224.45"/><line class="cls-24" x1="344.15" y1="222.12" x2="344.15" y2="226.78"/><line class="cls-22" x1="19.14" y1="220.59" x2="23.8" y2="220.59"/><line class="cls-22" x1="21.47" y1="218.27" x2="21.47" y2="222.92"/><path class="cls-25" d="M64.18,65.78H27.43a3.63,3.63,0,0,0-3.63,3.63V79.1a3.63,3.63,0,0,0,3.63,3.63H55.94L61.2,88V82.73h3A3.63,3.63,0,0,0,67.8,79.1V69.41A3.63,3.63,0,0,0,64.18,65.78Z"/><line class="cls-26" x1="29.29" y1="70.4" x2="57.46" y2="70.4"/><line class="cls-26" x1="29.29" y1="74.25" x2="61.83" y2="74.25"/><line class="cls-26" x1="29.29" y1="78.11" x2="40.96" y2="78.11"/><path class="cls-25" d="M238.17,71.54H201.41a3.62,3.62,0,0,0-3.62,3.62v9.7a3.62,3.62,0,0,0,3.62,3.62h28.52l5.26,5.27V88.48h3a3.62,3.62,0,0,0,3.62-3.62v-9.7A3.62,3.62,0,0,0,238.17,71.54Z"/><line class="cls-26" x1="203.28" y1="76.16" x2="231.45" y2="76.16"/><line class="cls-26" x1="203.28" y1="80.01" x2="220.43" y2="80.01"/><line class="cls-26" x1="222.87" y1="80.01" x2="235.81" y2="80.01"/><line class="cls-26" x1="203.28" y1="83.86" x2="214.94" y2="83.86"/><path class="cls-27" d="M177.78,57.82a22.36,22.36,0,0,1-22.36,22.37,22.31,22.31,0,0,1-17.27-8.13h0a22.37,22.37,0,1,1,39.63-14.23Z"/><path class="cls-25" d="M180,57.14a24.51,24.51,0,0,1-1.2,7.59l-23.37-7.59V32.56A24.58,24.58,0,0,1,180,57.14Z"/><path class="cls-11" d="M155.42,57.14l-8,26a26.37,26.37,0,0,1-12.37-8.35h0Z"/><rect class="cls-25" x="173.74" y="206.39" width="6.49" height="29.64"/><rect class="cls-25" x="184.18" y="211.14" width="6.49" height="24.88"/><rect class="cls-25" x="163.41" y="215.19" width="6.49" height="20.83"/><rect class="cls-25" x="194.61" y="202.44" width="6.49" height="33.58"/><path class="cls-25" d="M166.68,212.71a1.6,1.6,0,0,0,1.45-2.32l8-7.72a1.58,1.58,0,0,0,.86.26,1.62,1.62,0,0,0,1.16-.5l7.68,4.58a1.94,1.94,0,0,0,0,.24,1.62,1.62,0,1,0,3.23,0,1.56,1.56,0,0,0-.21-.77l8.41-10a1.54,1.54,0,0,0,.61.12,1.62,1.62,0,1,0-1.35-.74l-8.38,10a1.51,1.51,0,0,0-.7-.17,1.58,1.58,0,0,0-1.16.5l-7.68-4.58a2,2,0,0,0,0-.25,1.61,1.61,0,1,0-3.1.62l-8,7.76a1.57,1.57,0,0,0-.78-.21,1.62,1.62,0,0,0,0,3.23Z"/><path class="cls-11" d="M48.41,200.84v-3.5H46.94a9.21,9.21,0,0,0-1.4-3.4l1-1-2.47-2.48-1,1a9.21,9.21,0,0,0-3.4-1.4V188.6h-3.5v1.46a9.21,9.21,0,0,0-3.4,1.4l-1-1-2.48,2.48,1,1a9.06,9.06,0,0,0-1.41,3.4H27.43v3.5h1.46a9.13,9.13,0,0,0,1.41,3.4l-1,1,2.48,2.47,1-1a9.21,9.21,0,0,0,3.4,1.4v1.47h3.5v-1.47a9.21,9.21,0,0,0,3.4-1.4l1,1,2.47-2.47-1-1a9.28,9.28,0,0,0,1.4-3.4Zm-10.49,4.09a5.84,5.84,0,1,1,5.84-5.84A5.84,5.84,0,0,1,37.92,204.93Z"/><path class="cls-11" d="M59.33,209.86v-2.34h-1a6.29,6.29,0,0,0-.94-2.28l.69-.69-1.66-1.65-.69.69a6.05,6.05,0,0,0-2.28-.94v-1H51.13v1a6,6,0,0,0-2.27.94l-.69-.69-1.66,1.65.69.69a6.29,6.29,0,0,0-.94,2.28h-1v2.34h1a6.29,6.29,0,0,0,.94,2.28l-.69.69,1.66,1.65.69-.69a6,6,0,0,0,2.27.94v1h2.34v-1a6.05,6.05,0,0,0,2.28-.94l.69.69,1.66-1.65-.69-.69a6.29,6.29,0,0,0,.94-2.28Zm-7,2.74a3.91,3.91,0,1,1,3.91-3.91A3.9,3.9,0,0,1,52.3,212.6Z"/><rect class="cls-11" x="333.38" y="193.5" width="20.61" height="14.05"/><path class="cls-28" d="M333.38,207.55c1.63-1.53,3.3-3,5-4.45s3.41-2.87,5.11-4.31l.21-.18.22.18,2.56,2.15c.85.72,1.71,1.42,2.54,2.16,1.68,1.45,3.36,2.92,5,4.45-1.81-1.31-3.57-2.67-5.32-4.05-.89-.67-1.74-1.39-2.61-2.08l-2.59-2.1h.43c-1.74,1.39-3.45,2.81-5.2,4.18S335.19,206.24,333.38,207.55Z"/><polyline class="cls-11" points="333.38 193.5 343.68 201.99 353.99 193.5"/><path class="cls-28" d="M333.38,193.5c1.81,1.31,3.56,2.67,5.32,4s3.46,2.8,5.2,4.19h-.43l2.59-2.1c.87-.7,1.72-1.41,2.61-2.09,1.75-1.37,3.51-2.73,5.32-4-1.63,1.53-3.31,3-5,4.45-.83.74-1.69,1.44-2.54,2.16l-2.56,2.15-.22.18-.21-.18c-1.7-1.44-3.42-2.85-5.11-4.31S335,195,333.38,193.5Z"/><path class="cls-29" d="M351.63,193.19a2.74,2.74,0,1,1-2.74-2.74A2.74,2.74,0,0,1,351.63,193.19Z"/><polyline class="cls-30" points="347.34 192.99 348.56 194.4 350.45 192.3"/><path class="cls-3" d="M305.79,61.52a10.54,10.54,0,1,1,2.79,2.56l-5,2.75Z"/><path class="cls-29" d="M318.19,55.69A1.77,1.77,0,1,0,320,53.92,1.77,1.77,0,0,0,318.19,55.69Z"/><path class="cls-29" d="M312.42,55.69a1.77,1.77,0,1,0,1.77-1.77A1.77,1.77,0,0,0,312.42,55.69Z"/><path class="cls-29" d="M306.66,55.69a1.77,1.77,0,1,0,1.77-1.77A1.77,1.77,0,0,0,306.66,55.69Z"/><path class="cls-3" d="M338.76,94.27a11.82,11.82,0,1,0,1.58,11.88h0a11.87,11.87,0,0,0-1.58-11.87Zm-9.33,14.28a7,7,0,1,1,7-7,6.88,6.88,0,0,1-.52,2.65A7,7,0,0,1,329.43,108.55Z"/><path class="cls-25" d="M338.76,94.27l-3.85,2.89a7,7,0,0,0-5.48-2.63V89.71A11.82,11.82,0,0,1,338.76,94.27Z"/><path class="cls-31" d="M340.34,106.14h0a11.85,11.85,0,0,1-20.73,2l3.95-2.76a7,7,0,0,0,12.36-1.2Z"/></g></g></g></svg>