<svg xmlns="http://www.w3.org/2000/svg" xmlns:xlink="http://www.w3.org/1999/xlink" viewBox="0 0 596.26 297.42"><defs><style>.cls-1{fill:#d7d7d7;}.cls-12,.cls-13,.cls-15,.cls-2{fill:#fff;}.cls-3{fill:url(#linear-gradient);}.cls-4{fill:#f5fdff;}.cls-4,.cls-41{opacity:0.1;}.cls-11,.cls-14,.cls-5,.cls-6,.cls-7,.cls-8,.cls-9{opacity:0.5;}.cls-5{fill:url(#linear-gradient-2);}.cls-10,.cls-11,.cls-14,.cls-17,.cls-42,.cls-44,.cls-45,.cls-46,.cls-47,.cls-48,.cls-49,.cls-50,.cls-51,.cls-6,.cls-7,.cls-8{fill:none;}.cls-10,.cls-11,.cls-14,.cls-17,.cls-6,.cls-7,.cls-8{stroke:#fff;}.cls-14,.cls-17,.cls-6,.cls-7,.cls-8{stroke-miterlimit:10;}.cls-6{stroke-width:0.5px;}.cls-7{stroke-width:0.46px;}.cls-8{stroke-width:0.35px;}.cls-10,.cls-11,.cls-42,.cls-44,.cls-45,.cls-46,.cls-47,.cls-48,.cls-49,.cls-50,.cls-51{stroke-linecap:round;stroke-linejoin:round;}.cls-10,.cls-11{stroke-width:1.41px;stroke-dasharray:2.81;}.cls-12{font-size:13.9px;}.cls-12,.cls-13,.cls-15{font-family:OpenSans-Bold, Open Sans;font-weight:700;}.cls-13{font-size:15.67px;}.cls-14{stroke-width:0.43px;}.cls-15{font-size:12px;}.cls-16{opacity:0.38;}.cls-17{stroke-width:0.91px;}.cls-18{fill:#0d2e3f;}.cls-19{fill:#ffe1bd;}.cls-20{fill:#0a1828;}.cls-21{fill:#183f5b;}.cls-22{fill:#e5e5e5;}.cls-23{fill:#e8c5a0;}.cls-24{fill:#b3c5ce;}.cls-25{fill:#e8f1f8;}.cls-26{fill:#474747;opacity:0.24;}.cls-27{fill:#d4dedf;}.cls-28{fill:#632f00;}.cls-29{fill:#8c4200;}.cls-30{fill:#282c3b;}.cls-31{fill:#b4bcc5;}.cls-32{fill:#153851;}.cls-33{fill:#fc9;}.cls-34{fill:#10354c;}.cls-35{fill:#ccd6e7;}.cls-36{fill:#12374f;}.cls-37{fill:#a3b4d8;}.cls-38{fill:#f4d5b5;}.cls-39{fill:#e5bb98;}.cls-40{fill:#f2f2f2;}.cls-41{fill:#7f1e00;}.cls-42,.cls-44{stroke:#34b77e;}.cls-42{stroke-width:0.83px;}.cls-43{fill:#34b77e;}.cls-44,.cls-47,.cls-49{stroke-width:0.76px;}.cls-45,.cls-46{stroke:#00fcff;}.cls-45,.cls-51{stroke-width:0.86px;}.cls-46,.cls-48{stroke-width:0.84px;}.cls-47,.cls-48{stroke:#e1f0ff;}.cls-49,.cls-50{stroke:#ff4f92;}.cls-50{stroke-width:0.99px;}.cls-51{stroke:#ff8b00;}.cls-52{fill:#1c4d66;}</style><linearGradient id="linear-gradient" x1="488.61" y1="43.69" x2="488.61" y2="216.34" gradientUnits="userSpaceOnUse"><stop offset="0" stop-color="#bae794"/><stop offset="0.45" stop-color="#54c4ac"/><stop offset="1" stop-color="#1cb1ba"/></linearGradient><linearGradient id="linear-gradient-2" x1="488.61" y1="270.47" x2="488.61" y2="252.42" gradientUnits="userSpaceOnUse"><stop offset="0" stop-color="#fff"/><stop offset="1" stop-color="#a7a9ac"/></linearGradient></defs><title>img-page-home</title><g id="Camada_2" data-name="Camada 2"><g id="OBJECTS"><path class="cls-1" d="M434.23,16H542.69A11.33,11.33,0,0,1,554,27.33v238a11.34,11.34,0,0,1-11.34,11.34H434.23A11.33,11.33,0,0,1,422.9,265.3v-238A11.33,11.33,0,0,1,434.23,16Z"/><rect class="cls-1" x="426.66" y="36.38" width="123.9" height="213.91"/><path class="cls-1" d="M501,28.61H474.84a.92.92,0,0,1-.92-.92h0a.92.92,0,0,1,.92-.91H501a.92.92,0,0,1,.92.91h0A.92.92,0,0,1,501,28.61Z"/><path class="cls-2" d="M435.1,16.83H541.83a11.33,11.33,0,0,1,11.33,11.33v235.4a11.34,11.34,0,0,1-11.34,11.34H435.1a11.33,11.33,0,0,1-11.33-11.33V28.17A11.33,11.33,0,0,1,435.1,16.83Z"/><rect class="cls-3" x="427.47" y="37.02" width="122.26" height="211.81"/><path class="cls-1" d="M500.83,29.32H475a.9.9,0,0,1-.9-.9h0a.9.9,0,0,1,.9-.91h25.81a.91.91,0,0,1,.91.91h0A.9.9,0,0,1,500.83,29.32Z"/><path class="cls-4" d="M501.7,16.15l-76.57,240.1-1.7-221.46a18.16,18.16,0,0,1,17.9-18.29C464.48,16.18,501.71,15.73,501.7,16.15Z"/><circle class="cls-5" cx="488.61" cy="261.44" r="9.03"/><rect class="cls-6" x="434.7" y="47.78" width="107.82" height="42.48" rx="3.87" ry="3.87"/><rect class="cls-7" x="480.03" y="154.95" width="62.49" height="39.29" rx="3.58" ry="3.58"/><rect class="cls-8" x="436.87" y="212.33" width="104.01" height="29.76" rx="2.71" ry="2.71"/><g class="cls-9"><line class="cls-10" x1="436.87" y1="98.09" x2="486.96" y2="98.09"/><line class="cls-10" x1="495.75" y1="98.09" x2="519.47" y2="98.09"/></g><line class="cls-11" x1="468.09" y1="104.94" x2="523.33" y2="104.94"/><line class="cls-11" x1="436.87" y1="104.94" x2="464.94" y2="104.94"/><line class="cls-11" x1="524.74" y1="98.09" x2="539.53" y2="98.09"/><line class="cls-11" x1="527.28" y1="105" x2="539.53" y2="105"/><g class="cls-9"><line class="cls-10" x1="436.87" y1="111.08" x2="486.96" y2="111.08"/><line class="cls-10" x1="495.75" y1="111.08" x2="519.47" y2="111.08"/></g><line class="cls-11" x1="468.09" y1="117.93" x2="523.33" y2="117.93"/><line class="cls-11" x1="436.87" y1="117.93" x2="464.94" y2="117.93"/><line class="cls-11" x1="524.74" y1="111.08" x2="539.53" y2="111.08"/><line class="cls-11" x1="527.28" y1="117.98" x2="539.53" y2="117.98"/><g class="cls-9"><line class="cls-10" x1="436.87" y1="124.06" x2="491.45" y2="124.06"/><line class="cls-10" x1="495.75" y1="124.06" x2="519.47" y2="124.06"/></g><line class="cls-11" x1="468.09" y1="130.92" x2="523.33" y2="130.92"/><line class="cls-11" x1="436.87" y1="130.92" x2="464.94" y2="130.92"/><line class="cls-11" x1="524.74" y1="124.06" x2="539.53" y2="124.06"/><line class="cls-11" x1="527.28" y1="130.97" x2="539.53" y2="130.97"/><g class="cls-9"><line class="cls-10" x1="436.87" y1="137.05" x2="456.24" y2="137.05"/><line class="cls-10" x1="461.54" y1="137.05" x2="519.47" y2="137.05"/></g><line class="cls-11" x1="468.09" y1="143.91" x2="523.33" y2="143.91"/><line class="cls-11" x1="436.87" y1="143.91" x2="464.94" y2="143.91"/><line class="cls-11" x1="524.74" y1="137.05" x2="539.53" y2="137.05"/><line class="cls-11" x1="527.28" y1="143.96" x2="539.53" y2="143.96"/><g class="cls-9"><line class="cls-10" x1="436.87" y1="150.04" x2="486.96" y2="150.04"/><line class="cls-10" x1="495.75" y1="150.04" x2="519.47" y2="150.04"/></g><line class="cls-11" x1="436.87" y1="163.03" x2="453.11" y2="163.03"/><line class="cls-11" x1="524.74" y1="150.04" x2="539.53" y2="150.04"/><line class="cls-11" x1="436.87" y1="169.16" x2="475.61" y2="169.16"/><line class="cls-11" x1="455.65" y1="163.03" x2="476.79" y2="163.03"/><line class="cls-11" x1="436.87" y1="176.01" x2="473.61" y2="176.01"/><g class="cls-9"><line class="cls-10" x1="436.87" y1="182.15" x2="447.45" y2="182.15"/><line class="cls-10" x1="455.24" y1="182.15" x2="475.61" y2="182.15"/></g><line class="cls-11" x1="436.87" y1="189" x2="475.44" y2="189"/><g class="cls-9"><line class="cls-10" x1="436.87" y1="199.49" x2="486.96" y2="199.49"/><line class="cls-10" x1="495.75" y1="199.49" x2="519.47" y2="199.49"/></g><line class="cls-11" x1="468.09" y1="206.34" x2="523.33" y2="206.34"/><line class="cls-11" x1="436.87" y1="206.34" x2="464.94" y2="206.34"/><line class="cls-11" x1="524.74" y1="199.49" x2="539.53" y2="199.49"/><line class="cls-11" x1="527.28" y1="206.4" x2="539.53" y2="206.4"/><text class="cls-12" transform="translate(274.91 141.76)">{ }</text><text class="cls-13" transform="translate(294.32 143.84) scale(0.76 1)">&lt; / &gt;</text><path class="cls-14" d="M321.25,126.18H271.3a4.75,4.75,0,0,0-4.73,4.73v13.47a4.75,4.75,0,0,0,4.73,4.73h39.23l0,7.38,6.13-7.38h4.55a4.74,4.74,0,0,0,4.72-4.73V130.91A4.74,4.74,0,0,0,321.25,126.18Z"/><text class="cls-15" transform="translate(354.09 58.84)">010101</text><path class="cls-14" d="M399.42,44.26H349.47A4.75,4.75,0,0,0,344.74,49V62.46a4.75,4.75,0,0,0,4.73,4.73H388.7l0,7.38,6.14-7.38h4.54a4.75,4.75,0,0,0,4.73-4.73V49A4.75,4.75,0,0,0,399.42,44.26Z"/><text class="cls-15" transform="translate(304.83 88.12)">ABC</text><path class="cls-14" d="M301,73.55h32.19a4.74,4.74,0,0,1,4.73,4.72V91.74a4.75,4.75,0,0,1-4.73,4.73H330l0,7.39-6.14-7.39H301a4.75,4.75,0,0,1-4.73-4.73V78.27A4.74,4.74,0,0,1,301,73.55Z"/><g class="cls-16"><circle class="cls-17" cx="583.33" cy="139.12" r="3.59"/><path class="cls-17" d="M412.42,93.25a3.59,3.59,0,1,1-3.59-3.58A3.59,3.59,0,0,1,412.42,93.25Z"/><circle class="cls-17" cx="286.1" cy="101.56" r="3.59"/><circle class="cls-17" cx="258.61" cy="63.27" r="3.59"/><circle class="cls-17" cx="408.42" cy="224.93" r="3.59"/><path class="cls-17" d="M219.87,196.2a3.59,3.59,0,1,1-3.59-3.59A3.58,3.58,0,0,1,219.87,196.2Z"/><path class="cls-17" d="M339.2,173.2a3.59,3.59,0,1,1-3.59-3.59A3.59,3.59,0,0,1,339.2,173.2Z"/><circle class="cls-17" cx="290.87" cy="28.74" r="3.59"/><path class="cls-17" d="M570,47.19a3.59,3.59,0,1,1-3.59-3.59A3.59,3.59,0,0,1,570,47.19Z"/><path class="cls-2" d="M464.16,23.77h-2.64V21.12a.78.78,0,0,0-1.55,0v2.65h-2.65a.78.78,0,0,0,0,1.55H460V28a.78.78,0,0,0,1.55,0V25.32h2.64a.78.78,0,1,0,0-1.55Z"/><path class="cls-2" d="M375.32,29h-2.64V26.36a.78.78,0,0,0-.78-.78.77.77,0,0,0-.77.78V29h-2.65a.77.77,0,0,0-.77.78.76.76,0,0,0,.77.77h2.65V33.2a.76.76,0,0,0,.77.77.77.77,0,0,0,.78-.77V30.55h2.64a.77.77,0,0,0,.78-.77A.78.78,0,0,0,375.32,29Z"/><path class="cls-2" d="M314.45,53.54h-2.64V50.9a.78.78,0,1,0-1.55,0v2.64h-2.65a.78.78,0,0,0,0,1.55h2.65v2.65a.78.78,0,0,0,1.55,0V55.09h2.64a.78.78,0,1,0,0-1.55Z"/><path class="cls-2" d="M181.14,224.16H178.5v-2.65a.77.77,0,0,0-.78-.77.76.76,0,0,0-.77.77v2.65H174.3a.76.76,0,0,0-.77.77.77.77,0,0,0,.77.78H177v2.64a.77.77,0,0,0,.77.78.78.78,0,0,0,.78-.78v-2.64h2.64a.78.78,0,0,0,.78-.78A.77.77,0,0,0,181.14,224.16Z"/><path class="cls-2" d="M272.28,205.49h-2.65v-2.65a.78.78,0,0,0-1.55,0v2.65h-2.64a.78.78,0,1,0,0,1.55h2.64v2.65a.78.78,0,0,0,1.55,0V207h2.65a.78.78,0,0,0,0-1.55Z"/><path class="cls-2" d="M569.8,110.25h-2.65V107.6a.76.76,0,0,0-.77-.77.77.77,0,0,0-.78.77v2.65H563a.77.77,0,0,0-.78.77.78.78,0,0,0,.78.78h2.64v2.64a.78.78,0,0,0,.78.78.77.77,0,0,0,.77-.78V111.8h2.65a.77.77,0,0,0,.77-.78A.76.76,0,0,0,569.8,110.25Z"/><path class="cls-2" d="M481.57,3.42h-2.64V.77a.78.78,0,0,0-.78-.77.77.77,0,0,0-.77.77V3.42h-2.65a.78.78,0,0,0,0,1.55h2.65V7.62a.77.77,0,0,0,.77.77.78.78,0,0,0,.78-.77V5h2.64a.78.78,0,1,0,0-1.55Z"/><path class="cls-2" d="M236.72,114.35h-2.65V111.7a.77.77,0,1,0-1.54,0v2.65h-2.65a.78.78,0,0,0,0,1.55h2.65v2.65a.77.77,0,1,0,1.54,0V115.9h2.65a.78.78,0,0,0,0-1.55Z"/><path class="cls-2" d="M354.79,195.42h-2.64v-2.64a.78.78,0,1,0-1.55,0v2.64H348a.78.78,0,0,0,0,1.55h2.65v2.65a.78.78,0,0,0,1.55,0V197h2.64a.78.78,0,1,0,0-1.55Z"/></g><line class="cls-14" x1="187.28" y1="290.58" x2="596.26" y2="290.58"/><line class="cls-14" x1="181.92" y1="290.58" x2="129.95" y2="290.58"/><line class="cls-14" x1="124.61" y1="290.58" y2="290.58"/><path class="cls-18" d="M301.25,290s13,.56,22.75-8.21c7.83-7,13.62-18.74,15.27-23.86s2.37-15.37-.11-17.08-47.29,40.94-47.29,40.94Z"/><path class="cls-18" d="M243.28,262.23s5.4-6.11,20-6.09c11.35,0,48.59,10.22,48.59,10.22l-16.2,17.32Z"/><polygon class="cls-19" points="311.03 286.92 303.47 283.68 300.89 288.54 304.31 291.38 310.09 291.38 311.03 286.92"/><path class="cls-20" d="M304.31,291.37a5.3,5.3,0,0,0,4.43-1.93c1.89-2.25.81-3.2,2-3.33s6.48,2.29,11.75,1.75,6.88-1.34,7.15.61-.42,9.22-6.76,8.95S304.31,291.37,304.31,291.37Z"/><path class="cls-21" d="M263.26,264.74c8.25,5,42.31,16.46,42.31,16.46s1.27,8.76-6.09,11.38c0,0-41.08-11.59-50.8-16.05s-6.75-12.26-5.4-14.3S253,258.49,263.26,264.74Z"/><path class="cls-22" d="M294.29,204.21a4.05,4.05,0,0,1,1.79,1.85,4.62,4.62,0,0,1,.43,2.85c-.45,2.57-1,6.58-1.64,10.82-1,6.8-2.13,14.19-3.15,17.14-.22.68,2.85,4.2,1.52,5.84,0,.06-.4,13.76-.44,13.81l-1.4,1.33c-.52.33-2.48,1.14-3.49.7s-26.16,7.67-26,7.43c10.52-12.09,19.29-18.87,19.95-20,1.3-2.31.43-25.79,1-30.48a18.46,18.46,0,0,1,2.29-7.06,17.28,17.28,0,0,1,4.15-4.06C291.18,202.8,292.17,203.08,294.29,204.21Z"/><path class="cls-2" d="M320.4,240.84a18.83,18.83,0,0,0-.84,10.86c1.6,7.19-.22,7.68-.22,7.68s-8.66,6-17.11,6.9c-7.56.81-14,1.3-13.81-5.12l2.43,1.93c0-.39,0-.76,0-1.12.28-14.43-2.73-15.16-3.47-31.32-.77-16.57-4.8-18.77-1.17-23.47,5.37-7,19.61-10.5,30.9-7.83,8.47,2,11.26,4.24,11.19,10.52a49.17,49.17,0,0,1-.91,7.72C326,225.48,322.67,235,320.4,240.84Z"/><path class="cls-19" d="M311.68,189.9c-3.22,2.14-5.29,3.88-9.45,3.88-1.57,0-1-.62-2.43-1,.73.38-.73,1-.17,1.16a2.45,2.45,0,0,1,1.95,2.26l.26,4.77,1.86,3.89,3.24-2.1,4.73-3.07-.47-7.39A1.93,1.93,0,0,1,311.68,189.9Z"/><path class="cls-23" d="M304,198l.32,4.43-.61,2.46L301.84,201l-.26-4.77a2.45,2.45,0,0,0-1.95-2.26c-1.21-.26-.63-1.15-2.35-3a3.51,3.51,0,0,1-.29-.36c.21.12.49,1.79,4.35,2.22C304.19,193.19,303.79,195.14,304,198Z"/><path class="cls-22" d="M311.61,196.29a7.52,7.52,0,0,1,2.28,2.34,30.3,30.3,0,0,0-2.92,1.53c-1.24.76-7.21,5-7.21,5l-1.75-3.6S308.24,197.23,311.61,196.29Z"/><path class="cls-22" d="M302,201.53a5,5,0,0,0-2.73,2.27s-1.07-2,.3-5.68a9.15,9.15,0,0,1,2-1.47Z"/><polygon class="cls-24" points="311.03 260.72 270.71 260.37 294.72 269.32 311.03 260.72"/><polygon class="cls-25" points="294.63 270.27 311.91 268.66 312.04 267.24 294.47 268.89 294.63 270.27"/><path class="cls-19" d="M297.92,257.41l-3.28,1.8a5.64,5.64,0,0,0-6.45.2c-3.22,2.43.66,9.3,3,8.61s9.34-5.84,9.34-5.84Z"/><polygon class="cls-26" points="252.84 269.85 248.82 271.05 292.88 271.46 312.2 266.18 271.17 266.61 252.84 269.85"/><path class="cls-22" d="M313.71,255.51c-6.14,1.93-12.54,11.69-12.54,11.69l-.56-.91s-3.17-1.42-4-4.35a25.13,25.13,0,0,1-.3-4.53s15.34-7.67,20.05-12.86c2.29-2.52,2.5-4.63,4.68-5.69-.07-.17-.13-.33-.19-.5-2.39-6.83-2.28-16.59-3.27-21.54a15.73,15.73,0,0,1,.19-7.1,13.81,13.81,0,0,1,2-4.33c1.48-2.08,3.5-3.67,6.11-3.06a4.87,4.87,0,0,1,2.48,1.44,5.11,5.11,0,0,1,1.37,2.82c1,7.18,4.07,26.82,3.92,31.22a8.17,8.17,0,0,1-.35,2.12,5.58,5.58,0,0,1-.19.69C330.85,246.86,319.85,253.58,313.71,255.51Z"/><path class="cls-27" d="M294.63,270.27l-41.85-3.83a3,3,0,0,1-2.67-2.61l-3.31-29.15a2.49,2.49,0,0,1,2.7-2.76l39.19,3.59a2.5,2.5,0,0,1,2.25,2.2Z"/><path class="cls-28" d="M292.3,177.76a5.46,5.46,0,0,1-1,1.73,5.91,5.91,0,0,0-1,3.17c0-.07-1.8-5-1.27-6.26s1.59-1.53,1.87-1.13S292.3,177.76,292.3,177.76Z"/><path class="cls-19" d="M313.26,186.05a19,19,0,0,1,.08,3.55,2.71,2.71,0,0,1-.06.38c0,.12,0,.26-.09.39-1,4-6.1,9.69-9.68,10.15a9.12,9.12,0,0,1-1.38,0c-5-.22-7.88-4.3-9.57-8.64-.06-.16-.11-.31-.17-.45a40.26,40.26,0,0,1-2.09-9.63c0-.34,0-.54,0-.54a7.6,7.6,0,0,1,.11-3.33,2.16,2.16,0,0,1,.09-.27l.17,0c1.38-.43,10.76-3.3,11-3.32s9.65.66,9.65.66A102.52,102.52,0,0,1,313.26,186.05Z"/><path class="cls-29" d="M314.59,185.82a18.31,18.31,0,0,1,.08,3.56,2.71,2.71,0,0,1-.06.38c-.65,4-5.57,10.26-11.1,10.76-.42.06-.84.09-1.23.11-6,.24-8.06-4.27-9.72-8.73-.06-.16-.11-.31-.17-.45s2.08,3.32,3.12,3.42-.25-1.2,2.57-2.3a13.85,13.85,0,0,1,5.78-.48c1.17.16,3.28.76,4,.86a.71.71,0,0,0,.43,0c1-.51,3-3.87,3.35-6C311.8,186.07,313.81,185.69,314.59,185.82Z"/><path class="cls-29" d="M286.23,172.8s.31,7.21,12.15,4.32,10.94,8.9,10.94,8.9,1.65-4,2.14-2.43,0,5.43,0,5.43,3.25.36,3.35-1.24c.06-1,.16-14.61-2.18-17.85s-5.15-3.09-5.15-3.09-3-2.5-9.95-.46-10.66-.53-10.65-.33A14,14,0,0,0,286.23,172.8Z"/><path class="cls-30" d="M309.18,183.47c-.12-.49-2.27-.4-3.8-.21s-5.59.71-6.45,1.21-.82.84-1.27.89-.45-.28-1.4-.56a17.92,17.92,0,0,0-4.83.22c-1.53.19-3,.49-3,1s.23,1.38.53,1.51.3.1,1.4,2.06c.62,1.1,1.61,1.7,3.59,1.32,2.52-.48,2.78-2.56,3-3.43s.42-1,.8-1.06.64,0,1.08.82.7,2.63,3.26,2.65c3.35,0,4.84-.87,5.38-2.45.73-2.15.59-2.15.85-2.35s.86-.35.88-.63A3.08,3.08,0,0,0,309.18,183.47Zm-13,4.83a2.66,2.66,0,0,1-2.57,2.32c-1.55.19-2.23-.38-3-1.78-.66-1.23-.65-2.22-.37-2.57s1.1-.37,3-.53,2.55-.2,2.83.4A5.49,5.49,0,0,1,296.15,188.3Zm11-1.55c-.39,1.55-1.2,2.32-3.31,2.58-3,.36-3.54-.48-3.93-1.5a5.38,5.38,0,0,1-.45-2.12c.12-.65.75-.76,2.64-1.08s4.42-.73,4.78-.46S307.48,185.4,307.14,186.75Z"/><polygon class="cls-19" points="281.52 282.05 289.18 279.05 291.6 283.99 288.09 286.71 282.32 286.53 281.52 282.05"/><path class="cls-20" d="M288.09,286.71a5.29,5.29,0,0,1-4.36-2.07c-1.81-2.31-.7-3.22-1.91-3.39s-6.55,2.08-11.8,1.38-6.84-1.56-7.17.38.13,9.22,6.48,9.15S288.09,286.71,288.09,286.71Z"/><path class="cls-21" d="M286.56,276.47s19.35-15.74,27.45-24.11,13.23-16.54,22.68-13.26-2.43,20.85-11.07,27.72-30,22-30,22S284.19,284.79,286.56,276.47Z"/><circle class="cls-31" cx="268.77" cy="251.09" r="3.41"/><path class="cls-32" d="M364.4,81.07s-.57-5.26-6.55-4.11-11.7,6.41-10.49,13.56-2.69,7.2-3.63,6.81c0,0,4.73,5,11,2s5.94-13.77,5.94-13.77Z"/><path class="cls-32" d="M379,78.26s6.37,3.54,1.55,16.19c-1.53,4-11.23-3.21-11.23-3.21Z"/><path class="cls-33" d="M383,279.56a34.22,34.22,0,0,1,.76,6.68c-.38,2.06,0,2.66,0,2.66l7.8-.66s-3.45-1.7-3.21-9.74S383,279.56,383,279.56Z"/><path class="cls-2" d="M383.68,286.86a12.17,12.17,0,0,0,6.74.31,31.7,31.7,0,0,0,10.3,3c3.58.46,2.95,3.41-3.18,3a75.52,75.52,0,0,0-11.75,0c-1.36.13-3.54.31-3.63-.64S382.57,286.55,383.68,286.86Z"/><path class="cls-33" d="M359.08,279.56a34.22,34.22,0,0,1,.76,6.68c-.38,2.06,0,2.66,0,2.66l7.8-.66s-3.45-1.7-3.21-9.74S359.08,279.56,359.08,279.56Z"/><path class="cls-2" d="M359.74,286.86a12.17,12.17,0,0,0,6.74.31,31.7,31.7,0,0,0,10.3,3c3.58.46,3,3.41-3.18,3a75.52,75.52,0,0,0-11.75,0c-1.36.13-3.54.31-3.63-.64S358.63,286.55,359.74,286.86Z"/><path class="cls-34" d="M387.3,170.21s3.58,46,3.88,52.9.48,14.87.18,19-1,39.35-1,39.35-6.4,2.93-9.38.21c0,0-1.7-43.88-3.18-50.42s-7.13-34.08-7.13-34.08l6.71-33.93Z"/><path class="cls-21" d="M360.52,227c1.19-9.82-.8-44-.72-52.41s23.82-4.14,23.82-4.14-7.62,43.75-8.52,50.89-1.89,14.88-2.34,21.72-6,39.48-6,39.48-7.56,2-8.54-.49C356.14,269.39,360.52,227,360.52,227Z"/><path class="cls-20" d="M529.67,283.67c-.16.92,1.56,3.33-.75,5.36s-7.58,4.16-4.09,4.24a20.36,20.36,0,0,0,8.6-1.6c1.77-.88.36-2.26,2.56-2.95,2.9-.91,2.86-1.1,1.46-4.25C535.52,280.12,530.19,280.72,529.67,283.67Z"/><path class="cls-35" d="M506.83,137.24a17.12,17.12,0,0,0-.77,9.86c1.45,6.53-.2,7-.2,7S497,159.69,489.64,162c-5.27,1.65-9.77,1.37-9.64-4.46v-.08l0-1c.24-13.09-2.49-13.76-3.16-28.42-.69-15,3.33-23.43,7.31-27.07s9.43-3.77,19.67-1.35c7.7,1.81,10.23,3.86,10.17,9.55a44.8,44.8,0,0,1-.83,7C511.92,123.3,508.89,131.9,506.83,137.24Z"/><path class="cls-36" d="M488.25,105s-8,26.16-6.38,38.69l2.94,5.35,3.21-5.84s-2.61-25,2.39-37.76Z"/><path class="cls-37" d="M506.83,137.24a17.12,17.12,0,0,0-.77,9.86c1.45,6.53-.2,7-.2,7S497,159.69,489.64,162l-6.88-.65L480,159.17v-1.73l0-1a51.17,51.17,0,0,0,10.38-.27,43.26,43.26,0,0,0,10.19-2.55,4,4,0,0,0,2.51-4.42,56.39,56.39,0,0,1-1-9.13c0-2.88,1.36-7.75,2.45-11.27a22.8,22.8,0,0,0,.92-8.33,74.37,74.37,0,0,1,0-9.5l5.45-3,3,1.13a44.8,44.8,0,0,1-.83,7C511.92,123.3,508.89,131.9,506.83,137.24Z"/><path class="cls-38" d="M506.94,165c.63.11,2.24-2.72,2.24-2.72l-.68-.9a3,3,0,0,0-1.52-1.07l-.11,0a1.28,1.28,0,0,0-1.45.5c-.47.69-1.18,1.47-2,1.44h-.1C502.57,162.28,506.31,164.93,506.94,165Z"/><path class="cls-32" d="M482.09,74a4.13,4.13,0,0,0,.35,3.42l4.22-5.71-2.94,0Z"/><path class="cls-19" d="M505,81.58c-.19,7.37-6.55,11.64-6.55,11.64l.43,6.71-4.29,2.78-2.95,1.91L490,101.09l-.24-4.33A2.21,2.21,0,0,0,488,94.71a8.21,8.21,0,0,1-4.18-2.53,3,3,0,0,1-.27-.33h0c-2.78-3.8-3.84-18.34,5.7-22.47C499.07,65.09,505.21,74.2,505,81.58Z"/><path class="cls-23" d="M494.32,98.69l.29,4-2.95,1.91L490,101.09l-.24-4.33A2.21,2.21,0,0,0,488,94.71a8.21,8.21,0,0,1-4.18-2.53,3,3,0,0,1-.27-.33,16,16,0,0,0,6,1.85A5.41,5.41,0,0,1,494.32,98.69Z"/><path class="cls-32" d="M494.73,83.85c.37.15.73-.42.73-.42s2.06-4.65,2.78-5.36c1.27-1.29,4.27-1.17,4.51,2.81.18,3.09-3.46,9.67-4.58,11.6a.74.74,0,0,0,.19.94,1,1,0,0,0,.4.15h.05a.72.72,0,0,0,.48-.17c2.36-2.07,12.73-12,4.49-21.39,0,0-6.54.43-7.54,3.58A64.36,64.36,0,0,0,494.52,83S494.34,83.68,494.73,83.85Z"/><path class="cls-32" d="M482.09,74s5.73-4.46,14.42,1l7.13-1.82s.3-.1.14-1.17-.95-11.54-13.42-9.18C483.18,64.18,478.79,69.15,482.09,74Z"/><path class="cls-36" d="M487.7,102.8l0,.35a6.9,6.9,0,0,0,.51,1.88h0l2.16.44,1.88-1.4-2.16-2.51-.33.09a4.66,4.66,0,0,0-2.07,1.12Z"/><path class="cls-37" d="M498.85,96.8a6.92,6.92,0,0,1,2.06,2.13,29.42,29.42,0,0,0-2.65,1.39c-1.12.69-6.54,4.51-6.54,4.51l-1.59-3.27S495.79,97.66,498.85,96.8Z"/><path class="cls-37" d="M490.13,101.56a4.53,4.53,0,0,0-2.47,2.06s-1-1.85.27-5.16a8.43,8.43,0,0,1,1.83-1.33Z"/><path class="cls-39" d="M505.19,160.41a10.93,10.93,0,0,1-1.31,1.43c-.29.17-.35-.18-.23-.43S505.14,160.08,505.19,160.41Z"/><path class="cls-32" d="M498.76,93.57h.05a.72.72,0,0,0,.48-.17c2.36-2.07,12.73-12,4.49-21.39a9.63,9.63,0,0,1,.24,3S509.28,83.49,498.76,93.57Z"/><path class="cls-21" d="M517.2,191.3s6.18-20.42-11.34-37.23c0,0-9.39,4.2-16.91,4.71a36.8,36.8,0,0,1-8.92-.22s-.5,18.14-.52,27.91Z"/><path class="cls-21" d="M477.91,225.2c-.38-9.13,6.38-8.15,10.33-1.51,12.67,21.27,0,47.94-1.41,63.33a6.94,6.94,0,0,0-5-3.26,2.36,2.36,0,0,0-1.66.93C480.4,265.81,478.32,235,477.91,225.2Z"/><path class="cls-21" d="M487.9,226.19c-1.14,3.73-10.94,8-9.91-5.53.45-6,1.66-39.23,1.89-42.44s.77-7.88,2.32-8.46c7.74-2.92,18.6,6.8,16.56,18.83C497.4,196.63,490.26,218.46,487.9,226.19Z"/><path class="cls-20" d="M480.21,285a12.08,12.08,0,0,1-5,3.82c-2.69,1.21-8.4,1.77-5.23,2.83s6.87.42,8.74.12a38.79,38.79,0,0,1,5.9-.36c2.91,0,2.93-.2,2.54-3.48C486.58,283.37,481.52,282.41,480.21,285Z"/><path class="cls-21" d="M510.39,227.28c-3.06-8.61,3.69-9.67,9.43-4.48,18.37,16.59,14.08,45.82,17.31,60.92a11.41,11.41,0,0,1-5.76,1.65,2.06,2.06,0,0,1-1.57-.8C524.44,266.47,513.65,236.48,510.39,227.28Z"/><path class="cls-21" d="M520.35,224.82c.35,3.88-7.12,11.55-11.26-1.4-1.84-5.75-13.19-37-14.18-40s-2.25-7.59-1-8.72C500,169,513.67,174,516.3,185.89,518.06,193.85,519.64,216.77,520.35,224.82Z"/><path class="cls-2" d="M380.59,116.43,392,119.5s-1.27,9.59,0,12.44h-7.91s-1.38,4.12-2.11,6,5.36,27.25,6.31,33.26c0,0-3.26,5.6-29.34,2.72,0,0-1-6.07,2.38-15.39,2.94-8.17-10.19-28.89-10.19-28.89s2.17-15,14.91-17.65C373.49,110.46,373.56,114.54,380.59,116.43Z"/><path class="cls-19" d="M378.53,80.26s5.69,16.79,2.69,22.25c-2.39,4.34-7.6,3.8-7.6,3.8v10.12a2.47,2.47,0,0,1-1.5.58c-1.66.1-6.09-2.79-6.09-2.79V90.8Z"/><path class="cls-19" d="M350.49,135.12s-5.4,24.9-3.42,26.51,23.45,1.62,25.59,2.05,12.69,1.93,17.38-1.88c.6-.49-6,.73-6.75-1.05a4.91,4.91,0,0,0-3-2.41l-7.27,2.14s-16.39-3.1-17.5-4.11,4.8-21.15,4.8-21.15Z"/><path class="cls-40" d="M349.62,134.53s3.76-17,9.4-19.24,8.14,6.15,5.77,14.21-3,11-3,11S354,140.49,349.62,134.53Z"/><path class="cls-19" d="M521.82,127.7s4.73,31.75,2.14,33.68-29.61,3.41-32.34,3.85-13.71,3.39-19.45-1.66c-.74-.65,5.92-1,6.91-3.18s3.89-2.91,3.89-2.91l8.32,3.68s17.89-7.09,22.73-7.86c-2.19-3-5.16-23.75-5.16-23.75Z"/><path class="cls-35" d="M523.33,129s-3.69-23.26-10.72-26.39-12,6.91-9.4,17.23,3.25,14.1,3.25,14.1S517,135,523.33,129Z"/><rect class="cls-41" x="375.46" y="113.02" width="112.34" height="51.36" rx="4.68" ry="4.68"/><rect class="cls-2" x="377.46" y="111.02" width="112.34" height="51.36" rx="4.68" ry="4.68"/><polyline class="cls-42" points="390.08 116.34 387.25 119.35 390.07 122.36"/><polyline class="cls-42" points="397.19 116.34 400.02 119.35 397.19 122.36"/><line class="cls-42" x1="392.43" y1="122.88" x2="394.68" y2="116.34"/><path class="cls-43" d="M403.82,122.93a.8.8,0,1,1-.8-.85A.83.83,0,0,1,403.82,122.93Z"/><path class="cls-43" d="M407.12,122.93a.8.8,0,1,1-.8-.85A.82.82,0,0,1,407.12,122.93Z"/><ellipse class="cls-43" cx="409.63" cy="122.93" rx="0.8" ry="0.85"/><line class="cls-44" x1="387.25" y1="128.05" x2="481.57" y2="128.05"/><line class="cls-45" x1="387.25" y1="131.79" x2="443.91" y2="131.79"/><line class="cls-46" x1="448.32" y1="131.79" x2="481.57" y2="131.79"/><line class="cls-46" x1="481.57" y1="135.89" x2="434.93" y2="135.89"/><line class="cls-47" x1="451.84" y1="116.34" x2="481.79" y2="116.34"/><line class="cls-48" x1="448.55" y1="120.08" x2="481.79" y2="120.08"/><line class="cls-48" x1="481.79" y1="124.17" x2="435.15" y2="124.17"/><line class="cls-45" x1="431.14" y1="135.89" x2="425.58" y2="135.89"/><line class="cls-45" x1="421.17" y1="135.89" x2="415.61" y2="135.89"/><line class="cls-45" x1="411.2" y1="135.89" x2="405.64" y2="135.89"/><line class="cls-45" x1="401.23" y1="135.89" x2="395.67" y2="135.89"/><line class="cls-49" x1="481.57" y1="140.87" x2="393.9" y2="140.87"/><line class="cls-45" x1="389.25" y1="135.89" x2="387.25" y2="135.89"/><line class="cls-45" x1="389.25" y1="140.87" x2="387.25" y2="140.87"/><line class="cls-45" x1="389.25" y1="145.86" x2="387.25" y2="145.86"/><line class="cls-45" x1="389.25" y1="150.84" x2="387.25" y2="150.84"/><line class="cls-50" x1="395.47" y1="145.86" x2="419.57" y2="145.86"/><line class="cls-50" x1="395.47" y1="150.96" x2="427.44" y2="150.96"/><line class="cls-48" x1="395.47" y1="156.07" x2="438.83" y2="156.07"/><line class="cls-51" x1="422.11" y1="145.86" x2="481.57" y2="145.86"/><line class="cls-51" x1="429.74" y1="150.96" x2="481.57" y2="150.96"/><line class="cls-48" x1="441.51" y1="156.07" x2="481.57" y2="156.07"/><path class="cls-19" d="M407.2,161.6s-2.42-3.09-4-3.59-3.31-.53-3.72.28-.9,4.44-.55,5S405.9,165,407.2,161.6Z"/><path class="cls-19" d="M467.35,110.34s2.56,3.61,4.33,4.27,3.71.77,4.21-.12,1.27-4.95.9-5.65S469,106.6,467.35,110.34Z"/><path class="cls-52" d="M357.45,281.33a2.71,2.71,0,0,1,.19.82c0,.17-.1.33-.11.5,0,.55.63.84,1.17,1a25.84,25.84,0,0,0,5.49.29,5.48,5.48,0,0,0,2.51-.5,1.5,1.5,0,0,0,.7-.75.79.79,0,0,0-.26-.93c.33-.11.31-.63.05-.85a1.47,1.47,0,0,0-1-.21c-1.64.07-3.28.31-4.93.35a13.06,13.06,0,0,1-2.42-.15C358.36,280.77,357.23,280.34,357.45,281.33Z"/><path class="cls-52" d="M380.59,280.42a2.73,2.73,0,0,1,.2.82c0,.17-.1.33-.11.5,0,.55.63.84,1.17.95a25.74,25.74,0,0,0,5.48.29,5.48,5.48,0,0,0,2.51-.5,1.46,1.46,0,0,0,.7-.75.8.8,0,0,0-.25-.93c.32-.11.31-.63,0-.85a1.45,1.45,0,0,0-1-.21c-1.64.07-3.27.31-4.92.35a14.1,14.1,0,0,1-2.43-.15C381.5,279.86,380.38,279.43,380.59,280.42Z"/><path class="cls-32" d="M379.41,83.1s-4.35,9.38-8.47,11.1c0,0-1.24-1.72-2.35-.74s.48,4.57,1.6,4.94-2.28,4.81-4.16,5.06-9.16-8.89-7.68-16,5.16-8,5.16-8,5.27-5.68,15.78-1Z"/></g></g></svg>