<svg xmlns="http://www.w3.org/2000/svg" viewBox="0 0 54.49 54.49"><defs><style>.cls-1{fill:#fff;}</style></defs><title>linkedin</title><g id="Camada_2" data-name="Camada 2"><g id="Camada_1-2" data-name="Camada 1"><path class="cls-1" d="M27.25,54.49A27.25,27.25,0,1,1,54.49,27.25,27.27,27.27,0,0,1,27.25,54.49Zm0-51.56A24.32,24.32,0,1,0,51.56,27.25,24.35,24.35,0,0,0,27.25,2.93Z"/><path class="cls-1" d="M42.65,29.32V39.49a.45.45,0,0,1-.45.46H36.94a.45.45,0,0,1-.45-.46V30c0-2.49-.89-4.19-3.12-4.19a3.36,3.36,0,0,0-3.16,2.26A4,4,0,0,0,30,29.6v9.89a.45.45,0,0,1-.45.46H24.3a.45.45,0,0,1-.46-.46c0-2.52.07-14.74,0-17.61a.45.45,0,0,1,.46-.46h5.24a.45.45,0,0,1,.45.45V24l0,.06h0V24A6.12,6.12,0,0,1,35.56,21c4,0,7.09,2.65,7.09,8.34ZM14.73,40H20a.45.45,0,0,0,.45-.46V21.87a.45.45,0,0,0-.45-.45H14.73a.46.46,0,0,0-.46.45V39.49A.46.46,0,0,0,14.73,40Z"/><circle class="cls-1" cx="17.17" cy="15.76" r="3.3"/></g></g></svg>