<svg xmlns="http://www.w3.org/2000/svg" viewBox="0 0 507.03 254.9"><defs><style>.cls-1{fill:#fff;}.cls-2{fill:#499f80;}.cls-3{fill:#9e7b47;}</style></defs><title>logoICE</title><g id="Camada_2" data-name="Camada 2"><g id="Camada_1-2" data-name="Camada 1"><path class="cls-1" d="M257.14.24q0,125.3.12,250.58c0,4.08-1.94,4-4.85,4q-62.64-.08-125.29,0c-40.67,0-81.34-.09-122,.07-4.26,0-5.12-1.24-5.11-5.29Q.18,127.38.06,5.14C.06,2.15-.25,0,4.23,0Q128.8.22,253.4.11c1.25,0,2.5.1,3.75.15Zm-125,92a3.12,3.12,0,0,0-2.5-1.26c-5.42-3.07-10.86-6.08-16.24-9.23-2.6-1.52-3.24-.58-3.24,2q.06,27.43,0,54.86c0,1.87.41,3.15,2.29,4.11,18.44,9.41,36.84,18.93,55.25,28.42a2.29,2.29,0,0,0,2.15,1l1.61.84,1.33.7a4.77,4.77,0,0,0,3,1.57c3.28,2.94,3,.28,3-1.91q0-26.56-.09-53.12c0-1.26.55-2.9-1.3-3.55a7.61,7.61,0,0,1-4.35-2.2,2.32,2.32,0,0,0-2.23-1.34l-.81-.43a4,4,0,0,0-2.94-1.6.51.51,0,0,0-.72-.32,4.16,4.16,0,0,0-3-1.63.44.44,0,0,0-.62-.29,32.79,32.79,0,0,0-9.75-5.35l-.12-.06a4.73,4.73,0,0,0-3.55-2h0a15.48,15.48,0,0,0-6.59-3.5.46.46,0,0,0-.63-.37L140.8,97l-.14-.08a9.78,9.78,0,0,0-5.44-3c0-.21-.15-.29-.35-.23a3.67,3.67,0,0,0-2.55-1.4ZM91.27,89.57h0q0-24.16,0-48.34c0-1,.59-2.39-.64-2.93s-2,.58-2.82,1.25c-2.67,2.15-5.37,4.28-8,6.51-18.76,16-36.3,33.11-49.05,54.42-7.46,12.47-12.55,25.82-12,40.79.4,9.83.52,19.68.72,29.52.12,5.88.13,6,5.26,3.4C45.66,163.79,66.47,153.3,87.35,143c2.89-1.43,4.05-3.12,4-6.47C91.17,120.86,91.27,105.22,91.27,89.57Zm.61,106.3c0-12.52.05-25,0-37.55,0-4.61-1.18-5.23-5.32-3.06-5,2.64-10,5.52-15.08,8.06Q47,175.53,22.51,187.52c-2.37,1.15-3.61,2.61-3.59,5.37.1,13.3.14,26.6,0,39.9,0,3.07,1,4,4.05,4q32.39-.13,64.78.06c3.39,0,4.2-1.2,4.16-4.38C91.79,220.28,91.88,208.07,91.88,195.87Zm18.3-.93h0c0,12.52.1,25-.07,37.54,0,3.3,1,4.19,4.24,4.17q30-.1,60.06.2c3.18,0,4.33-.68,4.28-4.09q-.28-20.41,0-40.82c0-3-1.23-4.38-3.74-5.66-20.2-10.26-40.38-20.56-60.45-31.08-3.75-2-4.43-1.2-4.39,2.67C110.27,170.23,110.18,182.59,110.18,194.94ZM178.65,79.32c-.31-5.81,1.34-13.84-.61-21.39-8.93-34.54-38-43.21-65-30.25a4.52,4.52,0,0,0-2.88,4.73q.15,17.36,0,34.71a4.28,4.28,0,0,0,2.68,4.38q31.2,15.69,62.3,31.55c2.53,1.29,3.59,1.21,3.52-2C178.54,94.45,178.65,87.88,178.65,79.32Zm.2-60.36a7.12,7.12,0,0,0,.73,1.76c10,10.26,15,22.78,17,36.77,2,14.15,1.34,28.37,1.22,42.58,0,3.31.52,4.32,3.82,2.29,11.42-7,22.95-13.92,34.5-20.77a5,5,0,0,0,2.82-4.87c-.08-18-.12-35.93,0-53.9,0-3.14-1.13-3.95-4.12-3.91-10.77.15-21.56.05-32.34.05Zm18.81,125.79h.06c0,9.39.06,18.77,0,28.15,0,3,.55,3.74,3.34,2q17.61-11.18,35.38-22.09c2.14-1.3,2.45-2.94,2.45-5.07,0-18,0-36,.07-54,0-3.77-1-3.87-4-2.1q-16.89,10.11-34,19.86c-2.58,1.47-3.34,3.28-3.31,6C197.73,126.61,197.66,135.68,197.66,144.75Zm41.19,56.3h0c0-11.09-.09-22.19.05-33.28,0-3.69-.93-4-3.93-2.19q-16.69,9.93-33.59,19.53c-2.61,1.48-3.75,3.18-3.72,6.27q.24,20.85,0,41.71c0,3.3,1.27,3.8,4.1,3.77,11.09-.12,22.18-.15,33.27,0,3.09,0,4-.91,3.92-4C238.74,222.29,238.85,211.67,238.85,201.05ZM84.16,20.13l-.58-1c-20.46,0-40.93.07-61.39-.07-3.35,0-3.37,1.7-3.36,4.1.05,17.36,0,34.71.08,52.06,0,.94-.67,2.19,1.11,2.92C37.7,54.83,60,36.44,84.16,20.13Z"/><path class="cls-2" d="M91.27,89.57c0,15.65-.1,31.29.09,46.93,0,3.35-1.12,5-4,6.47-20.88,10.33-41.69,20.82-62.54,31.22-5.13,2.56-5.14,2.48-5.26-3.4-.2-9.84-.32-19.69-.72-29.52-.59-15,4.5-28.32,12-40.79C43.54,79.17,61.08,62,79.84,46.06c2.61-2.23,5.31-4.36,8-6.51.83-.67,1.7-1.75,2.82-1.25s.63,1.93.64,2.93q0,24.18,0,48.34Z"/><path class="cls-3" d="M91.88,195.87c0,12.2-.09,24.41.06,36.61,0,3.18-.77,4.4-4.16,4.38Q55.4,236.65,23,236.8c-3.06,0-4.08-.94-4.05-4,.11-13.3.07-26.6,0-39.9,0-2.76,1.22-4.22,3.59-5.37q24.51-12,48.94-24.2c5.1-2.54,10-5.42,15.08-8.06,4.14-2.17,5.3-1.55,5.32,3.06C91.93,170.83,91.88,183.35,91.88,195.87Z"/><path class="cls-1" d="M404.82,201.77c0-5.93.17-11.87-.07-17.79-.13-3.36.69-5.08,4.37-4.56a29.52,29.52,0,0,0,4.21,0c11.76,0,16.79,8.79,10.95,19.3-.92,1.66-.89,2.62.25,4.1,3.81,5,3.51,10.58,1.17,15.9-2.21,5-7.17,5.46-12,5.51-10.9.1-8.73.7-8.91-8.92-.05-2.35,0-4.69,0-7C404.81,206.14,404.81,204,404.82,201.77ZM420.48,211a18,18,0,0,0,0-2.32c-.49-3.76-3.17-4.7-6.37-4.63-3.94.1-1.92,3-2.07,4.83-.13,1.54,0,3.1-.17,4.64-.34,3.94.82,5,4.65,4.27S420.65,214.14,420.48,211Zm-8.69-18.79c1.14,1.9-1.69,5.66,2.64,5.8,3.8.12,5.42-2.25,5.29-6.09-.1-3.29-.51-6-4.68-6C409.89,186,413,190.08,411.79,192.21Z"/><path class="cls-1" d="M441.75,179.44c4.65-.67,9.86.59,11.6,6s2.95,11.76-1.68,16.8c-1.61,1.76-1.41,3.31-.94,5.08,1.06,4,2.41,8,3.34,12.12.36,1.57,2.57,4.07-1.08,4.75-2.43.46-4.78,1-5.32-3-.58-4.28-2.19-8.43-3.36-12.63-.38-1.36-.65-3-2.53-2.78-2.08.22-1.54,2-1.57,3.32-.08,3.44-.09,6.87,0,10.31,0,2.64.2,4.95-3.71,4.89S433,221.7,433,219.22c0-11.55.19-23.1-.11-34.65-.11-4.2,1.16-5.77,5.25-5.15A29.35,29.35,0,0,0,441.75,179.44Zm-1.81,13c1.35,2.21-2.16,6.62,3.2,6.73,4.83.1,4.5-3.65,4.68-7,.19-3.54-.5-6.46-4.84-6.25C438,186.19,441.23,190.31,439.94,192.43Z"/><path class="cls-1" d="M306,202.16c0,3.75.08,7.5,0,11.24-.18,6.5-3.52,10.1-9.91,10.86-11.12,1.34-11.5,1-11.5-10.15,0-10.3.08-20.61,0-30.91,0-2.81.82-3.76,3.72-3.82,12.25-.23,18.77.16,17.77,17.16C305.93,198.41,306,200.29,306,202.16Zm-14.79-.31c0,3.75,0,7.51,0,11.26,0,2.09-.68,4.72,2.82,4.76,3.13,0,5.14-1.37,5.31-4.64.14-2.81.05-5.64.05-8.45,0-4.85,0-9.7-.05-14.55-.06-3.51-2.32-4.32-5.39-4.34-3.31,0-2.74,2.26-2.75,4.22C291.2,194,291.22,197.94,291.23,201.85Z"/><path class="cls-1" d="M398,201.8c0,4.23.1,8.45,0,12.68-.18,6.28-4.13,10-10.49,10.07-7,.08-10.85-3.12-11-9.76-.19-8.44-.19-16.89,0-25.34.12-6.68,4.43-10.71,11.08-10.75,6.05,0,10.31,4.34,10.46,10.9.09,4.07,0,8.14,0,12.2Zm-6.57.38h-.05c0-4.21.15-8.43-.07-12.63-.11-2.25-1-4.48-3.9-4.3-2.63.16-4.35,1.47-4.34,4.44,0,8,0,15.91,0,23.87,0,2.74,1.33,4.51,4.25,4.47s4.08-1.92,4.11-4.61C391.5,209.67,391.47,205.93,391.47,202.18Z"/><path class="cls-1" d="M355,169.28q-.11-3-.23-5.95a.37.37,0,0,0,0-.64V131.53a.55.55,0,0,0,.2-.72l.13-.13,5.38-.55,1.49,1.44c-.07.1-.22.25-.19.31a4.12,4.12,0,0,0,.4.56c.16.66.33,1.33.49,2-.05.12-.18.28-.14.36a4,4,0,0,0,.43.59c.2.64.4,1.27.59,1.91-.05.1-.16.23-.14.31a4.13,4.13,0,0,0,.33.58l4.61,15.07.94-.11c0-6.45,0-12.91,0-19.36,0-2-.14-3.66,2.76-3.72s3.25,1.39,3.23,3.76c-.08,10.78,0,21.56-.08,32.34,0,1.55.75,3.7-2,3.86-2.21.12-5.09.32-5.66-2.08-1.43-6.08-4.5-11.67-5.1-18,0-1.26-.27-2.39-1.62-3a3.71,3.71,0,0,0,0,3.17c0,1.37,0,2.75,0,4.11a17.25,17.25,0,0,0,0,7.19l0,3.08c-.14,1.71-.27,3.42-.41,5.13a8,8,0,0,1-5.21-.17Z"/><path class="cls-1" d="M470.83,179.54c3.47-.63,4.89.7,5.42,4.36,1.79,12.33,4.46,24.52,5.73,36.94.13,1.29,1.34,3-.92,3.33-1.75.27-3.94.75-4.95-1.47a10.42,10.42,0,0,1-.92-4.07c-.05-2.95-.85-4.58-4.32-4.6-3.31,0-4.5,1.19-4.32,4.34a16.85,16.85,0,0,1-.53,2.73c-.32,3-2.22,3.51-4.68,3.09-3.16-.53-2.39-3.3-2-4.86,1.4-5.14,1.95-10.39,2.93-15.59,1.24-6.55,1.69-13.2,3.21-19.74C466.3,180.56,467.18,178.82,470.83,179.54Zm.51,12.93c-2.16,4.14-2.66,8.43-2.87,12.76-.09,1.87.85,2.41,2.58,2.39,2,0,2.39-1.13,2.16-2.74C472.61,200.74,472,196.61,471.34,192.47Z"/><path class="cls-1" d="M323,51c0-5.62.07-11.24,0-16.85,0-2.32.58-3.59,3.14-3.32a27.59,27.59,0,0,0,3.28,0c4.76-.06,9.93-.32,12,5.09s2.54,11.07-1.61,15.89a3.94,3.94,0,0,0-.74,4.24c1.11,3.9,2.28,7.79,3.34,11.7.36,1.35,1.61,3.3-1.08,3.55-1.84.17-4.22.93-5-2-1-3.93-2-7.85-3.09-11.77-.36-1.33-.55-3-2.47-2.77s-1.36,2.15-1.4,3.41c-.11,3.27-.17,6.55,0,9.82.11,2.64-.91,3.54-3.54,3.52-2.86,0-2.82-1.65-2.81-3.67C323,62.2,323,56.59,323,51Zm6.05-8.6c1.51,2-2.2,6.09,2.84,6.38,4.38.25,4.26-3,4.27-6.09s.06-6.19-4.35-6S330.21,40.48,329,42.37Z"/><path class="cls-1" d="M312.74,201.62c0-6.1.1-12.19,0-18.28-.06-2.67.55-4.08,3.61-3.93,4.21.2,8.43.07,12.65,0,2,0,3.33.32,3.26,2.79-.06,2.17-.5,3.73-3.06,3.68-.78,0-1.56,0-2.34,0-7.48.06-9.58,2.84-7.54,10.12,1,3.61,4.13,2.2,6.31,2.14,3.62-.09,4.42,1.6,3.73,4.59-.54,2.32-2.58,1.72-4.23,1.92-1.91.24-4.89-1.09-5.49,1.14a20.46,20.46,0,0,0,.14,11.08c.39,1.31,2.1,1.09,3.34,1.1,2.19,0,4.38,0,6.56,0s2.5,1.46,2.54,3.18-.56,3.07-2.61,3.07c-4.69,0-9.38,0-14.06,0-2.68,0-2.81-1.9-2.79-3.91,0-3.12,0-6.25,0-9.37Z"/><path class="cls-1" d="M360.23,224.55c-5.51.07-10.59-4-10.91-8.87-.1-1.56-.3-3.39,2-3.43,1.68,0,3.89-1,4.47,1.9.69,3.5,3.11,5,6.18,3.44,3.47-1.73,3-5.07,1-7.61-3-3.9-6.71-7.32-9.87-11.14s-4.8-8.39-2.87-13.47a10.27,10.27,0,0,1,19.66,1.79c.37,2.63-.65,3.49-3.14,4s-3.31,0-3.5-2.58c-.17-2.3-1.68-3.83-4.18-3.14a4,4,0,0,0-2.94,5.11c.66,2.78,2.61,4.81,4.52,6.93,4.28,4.75,10.25,8.49,10.26,16C370.94,220,366.69,224.47,360.23,224.55Z"/><path class="cls-1" d="M381.56,150.09c0-4.22-.33-8.48.09-12.66.53-5.35,5.16-8.41,10.89-7.75,5.28.61,8.58,4.79,8.3,10.11-.12,2.14-1.09,2.66-2.91,2.68s-3.14-.07-3.2-2.35c-.07-2.45-.35-5-3.75-4.7s-3.49,3-3.51,5.56c0,6.1,0,12.2,0,18.31,0,2.68.3,5.28,3.77,5.28,3.28,0,3.6-2.51,3.46-5s1.29-5.35-2.88-6.13c-1.45-.27-.81-2.5-.74-3.82.09-1.54,1.48-1.27,2.53-1.39,6.81-.79,7.16-.49,7.21,6.29,0,2,0,4.07,0,6.1-.22,6.26-3.62,9.73-9.55,9.8s-9.48-3.22-9.77-9.55c-.17-3.59,0-7.19,0-10.79Z"/><path class="cls-1" d="M309.31,101.05c0-5.47.1-11,0-16.42-.07-2.71.69-4.22,3.68-3.88a18.83,18.83,0,0,0,2.81,0c4.72-.23,9.66,0,11.53,5.1s2.42,10.78-1.55,15.54a3.9,3.9,0,0,0-.84,4.22q1.79,5.58,3.23,11.26c.32,1.27,1.79,3.23-.91,3.67-2,.32-4.21.7-5-2.11q-1.57-5.88-3.14-11.77c-.33-1.24-.73-2.58-2.4-2.26-1.45.27-1.28,1.62-1.29,2.66-.06,3.44-.14,6.89,0,10.32.1,2.43-.86,3.36-3.25,3.37s-2.82-1.33-2.8-3.3c0-5.47,0-11,0-16.42Zm5.84-8.8c1.4,1.94-2,5.88,2.79,6.14,4.54.25,4.13-3.16,4.19-6.19s-.17-5.89-4.27-5.68C313.31,86.75,316.44,90.42,315.15,92.25Z"/><path class="cls-1" d="M303.35,51.28c0,3.59,0,7.18,0,10.77,0,2.4,1.19,3.9,3.65,4s3.86-1.42,3.7-3.81c-.2-2.88,1.79-6.61-3.08-8-1.11-.31-.7-2.56-.47-3.93.25-1.56,1.59-1.15,2.62-1.23,7-.55,7-.53,7.09,6.42,0,2.18.05,4.37,0,6.56-.27,6.52-3.71,9.86-10,9.78-6-.08-9.43-3.44-9.52-9.75-.12-7.8-.2-15.62.16-23.41.27-5.77,4.67-8.9,10.75-8.37,5.33.47,8.68,4.35,8.62,9.78,0,2-.36,3.31-2.76,3.36-2.06,0-3.34-.5-3.33-2.8,0-2.75-1.09-4.68-4.12-4.43-3.19.27-3.31,2.82-3.33,5.24,0,3.28,0,6.56,0,9.84Z"/><path class="cls-1" d="M399.27,30.84c2.85-.7,3.66,1.14,4.09,3.84,1.76,11.07,3.66,22.12,5.44,33.19.21,1.32,1.39,3.36-1.36,3.49-2,.1-4.22.8-4.89-2.63-.43-2.24,1.17-6.12-3.43-6.42-2.74-.17-4.59.42-4.57,3.65a15.06,15.06,0,0,1-.49,3.71c-.6,2.46-2.67,1.61-4.25,1.67-2.1.1-2.08-1.29-1.82-2.85,2-11.68,4-23.36,5.93-35.06C394.47,30.06,396.87,31,399.27,30.84Zm-.46,11.94-.9.08c-.53,3.66-1.07,7.31-1.59,11-.23,1.61.08,2.67,2.12,2.65s2.36-1,2.1-2.68Q399.69,48.29,398.81,42.78Z"/><path class="cls-1" d="M339.45,130.17c3.26-.62,4.37.81,4.82,4,1.52,10.65,3.41,21.24,5,31.87.22,1.44,1.45,3.65-1.49,4-2.35.25-4.45,0-4.41-3.19,0-1.07-.44-2.14-.51-3.23-.15-2.56-2.09-2.29-3.74-2.41-1.89-.13-3.42.33-3.6,2.63-.1,1.24-.35,2.47-.46,3.71-.22,2.74-2.17,2.61-4.09,2.51-2.5-.13-2-1.9-1.78-3.41,1.85-11.23,3.89-22.43,5.52-33.69C335.27,129.28,337.58,130.42,339.45,130.17Zm.23,11.18-.52-.13c-.65,3.68-1.33,7.36-1.93,11.05-.25,1.55-.6,3.18,2,3.19,2.3,0,2.56-1.18,2.26-3C340.84,148.76,340.27,145.05,339.68,141.35Z"/><path class="cls-1" d="M399.34,80.77c2.21-.4,3.6.41,4.07,3.57,1.64,11,3.65,21.87,5.49,32.8.24,1.44,1.09,3.36-1.5,3.49-1.89.09-4.29.83-4.56-2.42a45.84,45.84,0,0,0-.76-4.62c-.43-2.23-2.23-1.76-3.73-1.8s-2.87,0-3.15,2c-.2,1.39-.58,2.77-.65,4.16-.16,3.06-2.3,2.93-4.36,2.77-2.52-.18-1.85-2.13-1.61-3.54,1.86-11.26,3.87-22.49,5.65-33.75C394.73,80.29,396.81,80.86,399.34,80.77Zm-.9,13c-2.07,3.52-1,6.8-1.9,9.71-.56,1.73.36,2.6,2.17,2.62,2,0,2.34-1.19,2-2.78C400,100.29,399.29,97.32,398.44,93.72Z"/><path class="cls-1" d="M496.84,130.18c2.51-.48,3.86.63,4.32,3.63,1.64,10.81,3.51,21.57,5.26,32.36.25,1.56,1.31,3.55-1.64,3.81-2.43.21-4.41-.07-4.4-3.23,0-1.08-.35-2.15-.45-3.24-.23-2.51-2-2.33-3.79-2.29-1.6,0-3.17-.05-3.33,2.24a36.47,36.47,0,0,1-.76,4.62c-.5,2.49-2.51,1.89-4.13,1.87-2.17,0-1.94-1.66-1.71-3,1.89-11.4,3.9-22.77,5.71-34.17C492.41,129.63,494.54,130.28,496.84,130.18Zm-.77,10.7c-.74,4.64-1.34,8.27-1.89,11.91-.26,1.67.33,2.64,2.22,2.61,1.61,0,2.3-.72,2-2.27C497.71,149.39,497.88,145.49,496.07,140.88Z"/><path class="cls-1" d="M463,149.94c0-3.6-.11-7.2,0-10.79.25-6.56,4.84-10.36,11.23-9.44,5.48.79,8.8,6.11,7.71,12-.37,2-1.58,2-3,2s-2.9-.07-2.92-2.1a17.65,17.65,0,0,0-.13-3.26,3.33,3.33,0,0,0-3.66-2.92,2.82,2.82,0,0,0-2.95,3q-.15,11.49,0,23a3,3,0,0,0,3.29,3.23,3.17,3.17,0,0,0,3.39-3.17c.15-1.39.1-2.81.17-4.21.09-1.8,1.5-1.77,2.72-1.82s2.86-.44,3,1.34c.27,4,.83,8.24-2.76,11.33s-7.42,3.11-11.36,1.19a8.17,8.17,0,0,1-4.63-7.61c-.09-3.91,0-7.82,0-11.72Z"/><path class="cls-1" d="M284.62,100.74c0-3.59-.13-7.19,0-10.78.28-6.73,4.61-10.39,11.07-9.54,5.62.74,8.89,5.67,8,11.67-.32,2.22-1.62,2.33-3.26,2.36s-2.72-.5-2.67-2.39a23.89,23.89,0,0,0-.17-3.27c-.2-1.89-1.49-2.69-3.19-2.84s-3.3.77-3.34,2.53c-.15,8.11-.18,16.23,0,24.35,0,1.66,1.51,2.73,3.33,2.62a3.12,3.12,0,0,0,3.22-2.82,20.33,20.33,0,0,0,.16-3.74c-.1-2,.63-2.9,2.69-2.84,1.71,0,2.91.27,3.27,2.4,1.11,6.47-2.27,12-8,12.73-6.67.84-11-3.26-11.13-10.59C284.58,107.31,284.62,104,284.62,100.74Z"/><path class="cls-1" d="M348.35,51c0-5.62.06-11.24,0-16.86,0-2.35.77-3.43,3.24-3.36,3.9.12,7.81.09,11.71,0,2.05,0,2.71.87,2.75,2.81,0,2.15-.62,3.29-2.94,3a11.79,11.79,0,0,0-1.88,0c-7.35.21-6.36-.94-6.68,6.94-.15,3.69,1.26,4.68,4.62,4.39,2-.17,4.46-.87,4.42,2.86s-2.51,3-4.48,2.8c-4-.47-4.61,1.53-4.54,4.94.14,7,0,7,7,7.14,2,0,4.5-.89,4.54,2.82s-2.45,2.93-4.48,2.87c-4.18-.13-9.55,1.77-12.23-.76-2.92-2.77-.71-8.27-1-12.57-.16-2.33,0-4.68,0-7Z"/><path class="cls-1" d="M406.76,149.8c0-5.32.15-10.65-.05-16-.11-2.92.92-3.84,3.77-3.67,3.59.22,7.2.1,10.79,0,2-.06,2.85.69,2.84,2.72s-.74,3-2.75,2.9c-.62,0-1.25,0-1.87,0-7,0-6.33-.86-6.67,6.5-.18,3.89,1.25,4.95,4.8,4.59,1.95-.2,4.18-.53,4.17,2.78s-2.25,3-4.19,2.78c-6.88-.8-4.12,4.31-4.7,7.42-.8,4.3,1.76,4.6,5,4.35,1.24-.1,2.5,0,3.75,0,1.78,0,2.51.85,2.49,2.6s-.24,3.17-2.45,3.17c-4.22,0-8.45,0-12.67,0-2.36,0-2.18-1.72-2.18-3.31V149.8Z"/><path class="cls-1" d="M318,150.43c.84-5.71,1.87-11.4,2.46-17.14.35-3.3,2.35-3.26,4.6-3,3,.35,1.59,2.57,1.36,4-1.71,10.63-3.7,21.22-5.24,31.87-.49,3.36-2,3.94-4.94,3.92-2.76,0-4.16-.54-4.62-3.69-1.52-10.5-3.47-20.94-5.11-31.43-.26-1.63-2.08-4.15,1.5-4.72,2.89-.45,4.13.69,4.48,3.72.84,7.13,2.05,14.21,3.12,21.31-.19,1.42-.38,2.84,1,4a3.42,3.42,0,0,0,.54-3.23c.25-1.61.51-3.22.76-4.83A.5.5,0,0,0,318,150.43Z"/><path class="cls-1" d="M284.62,150c0-5.32.2-10.65-.07-16-.16-3.22,1-4.05,4-3.87,3.58.21,7.19.07,10.79,0,1.62,0,2.72.41,2.67,2.36,0,1.76-.39,3.13-2.53,3.13l-2.35,0c-6.38.08-6.07.1-6.46,6.23-.28,4.41,1.45,5.52,5.35,5,2.05-.29,3.65,0,3.62,2.83s-1.75,2.67-3.72,2.83c-1.7.14-4.39-1.17-4.88,1.3-.62,3.14-1.24,6.79.38,9.61,1.05,1.8,4.09.58,6.23.68s4.46-.25,4.4,3.19-2.4,2.71-4.29,2.64c-4.18-.16-9.53,1.74-12.24-.8s-.67-8-.91-12.16C284.5,154.68,284.61,152.33,284.62,150Z"/><path class="cls-1" d="M355.49,121.23c-5.12,0-9-3.06-9.67-7.76-.23-1.53-.6-3.18,1.71-3.63,2-.39,3.76-.69,4.18,2.09s2.35,4.29,5,3.3c3-1.13,2.87-3.85,1.72-6.33-1.54-3.33-4.49-5.56-7-8.08-3.46-3.45-5.88-7.27-5.27-12.45.59-5,3.36-7.67,8.22-7.92,5.2-.27,8.71,2.14,9.68,6.83.31,1.53,1.17,3.58-1.59,4-1.88.28-3.77.78-4.11-2.17-.27-2.4-1.79-3.78-4.26-2.87s-2.35,3.12-1.79,5.15c.73,2.66,2.89,4.39,4.63,6.39,2.85,3.27,6.41,6,7.73,10.43C366.7,115.07,362.4,121.22,355.49,121.23Z"/><path class="cls-1" d="M488.28,201.47c0-5.93,0-11.86,0-17.79,0-2.24-.34-4.27,3.15-4.32,3.72-.05,3.44,2.11,3.44,4.55,0,9.67.16,19.36-.1,29-.1,4,1.36,5.4,5.14,5,1.24-.14,2.5,0,3.75,0,1.9-.06,3.4.19,3.38,2.69,0,2.14-.44,3.76-3,3.72-4.5-.06-9-.06-13.51-.26-2.43-.1-2.28-2.05-2.27-3.81q0-9.37,0-18.74Z"/><path class="cls-1" d="M374.88,103.34c0-4.53-.09-9.06,0-13.59.06-2.29-.44-3.63-3.07-3.32-2.07.25-3.59,0-3.63-2.83s1.6-2.86,3.62-2.83c4.22,0,8.44.07,12.66,0,2.07,0,3.19.53,3.22,2.87s-1,3.12-3.12,2.81c-3.1-.46-3.59,1.18-3.55,3.83.13,8.9,0,17.81.11,26.72,0,2.28-.07,4-3.12,3.87-2.8-.11-3.31-1.49-3.23-3.92.14-4.53,0-9.06,0-13.6Z"/><path class="cls-1" d="M429.11,149.85c0-4.84-.1-9.67.05-14.51.06-2.16-1.28-5.28,3.11-5.19,4.09.09,2.8,3,2.83,5,.11,7.64,0,15.29,0,22.93,0,6.06,0,5.95,6,6.19,1.93.07,5-1.43,4.93,2.8-.05,2.21-.71,3.08-2.95,3-3.59-.13-7.18-.15-10.77,0-2.48.09-3.29-1-3.26-3.34.09-5.62,0-11.23,0-16.85Z"/><path class="cls-1" d="M290.91,50.85c0,5.77-.07,11.55,0,17.33,0,2.35-.67,3.3-3.2,3.29s-3.18-1-3.17-3.36c.08-11.24.07-22.49,0-33.73,0-2.1.16-3.54,2.93-3.6s3.4,1.23,3.35,3.67c-.1,5.46,0,10.93,0,16.4Z"/><path class="cls-1" d="M450.83,149.4c0-5.31.1-10.63-.05-15.93-.07-2.4.7-3.33,3.14-3.4,2.73-.08,3,1.31,3,3.49-.06,10.94,0,21.87,0,32.8,0,2-.06,3.62-2.87,3.7-3,.09-3.23-1.49-3.2-3.79C450.88,160.65,450.83,155,450.83,149.4Z"/><path class="cls-1" d="M334.26,100.6c0-5.46.05-10.91,0-16.37,0-2.19.36-3.5,3-3.47s3.2,1.07,3.18,3.38c-.07,11.06-.05,22.13,0,33.19,0,2.16-.47,3.51-3.1,3.53s-3.14-1.17-3.11-3.43c.09-5.61,0-11.22,0-16.83Z"/><path class="cls-1" d="M383.19,48.53c0,5,.25,10-.07,15-.37,5.57-4.87,8.95-10.36,8.26-1.38-.18-3-.13-2.7-2.28.22-1.48,0-3.42,2.31-3.39,4.2.05,4.74-2.65,4.74-5.93,0-8.58.06-17.17.08-25.75,0-2-.12-3.68,2.8-3.66s3.43,1.25,3.37,3.73c-.13,4.68,0,9.36,0,14Z"/><path class="cls-1" d="M417.81,121.33c-1.35,1.55-1.29,4.46-4,5.12a1.08,1.08,0,0,1-1.1-1.58c.92-1.94.44-5,3.74-5.17C417.33,119.65,418,120.1,417.81,121.33Z"/><path class="cls-1" d="M402,75.64c-1.83,4.36-5,.86-7.24,1.76-.13-.4-.48-1-.33-1.17.47-.54,1.13-1.3,1.7-1.28A59,59,0,0,1,402,75.64Z"/></g></g></svg>