<svg xmlns="http://www.w3.org/2000/svg" viewBox="0 0 453.98 239.89"><defs><style>.cls-1{fill:#78e2f8;}.cls-2{fill:#fff;}</style></defs><title>nome_1</title><g id="Camada_2" data-name="Camada 2"><g id="Camada_1-2" data-name="Camada 1"><path class="cls-1" d="M43.28,56.23q0,17.1-7.92,26.18T12.41,91.5A32.75,32.75,0,0,1,0,89.18v-18a17.85,17.85,0,0,0,11,3.74q13.13,0,13.13-19.47V4.87H43.28Z"/><path class="cls-1" d="M117.86,90H99.16V80.75h-.3Q91.92,91.49,80.27,91.5q-21.13,0-21.13-25.59V29.21h18.7v35q0,12.89,10.21,12.89a10.1,10.1,0,0,0,8.08-3.54q3-3.53,3-9.58V29.21h18.7Z"/><path class="cls-1" d="M152.41,90H133.65V0h18.76Z"/><path class="cls-1" d="M177.71,19.59a11,11,0,0,1-7.78-2.82,9.07,9.07,0,0,1-3-6.91,8.77,8.77,0,0,1,3-6.89,12.71,12.71,0,0,1,15.59,0,8.83,8.83,0,0,1,3,6.89,9.06,9.06,0,0,1-3,7A11.17,11.17,0,0,1,177.71,19.59ZM187,90H168.21V29.21H187Z"/><path class="cls-1" d="M253.35,90H235.6V81.28h-.24Q229.24,91.5,217.25,91.5q-8.85,0-13.92-5t-5.08-13.39q0-17.7,21-20.42l16.51-2.2q0-10-10.81-10A36.92,36.92,0,0,0,204.25,47V32.83A46.74,46.74,0,0,1,215,29.27a56.33,56.33,0,0,1,12.38-1.54q26,0,26,25.94Zm-17.63-24.7v-4.1l-11.05,1.43q-9.13,1.19-9.14,8.25a6.82,6.82,0,0,0,2.23,5.26,8.56,8.56,0,0,0,6,2,11.11,11.11,0,0,0,8.61-3.66A13.16,13.16,0,0,0,235.72,65.31Z"/><path class="cls-1" d="M326.92,90H308.21V56.23q0-14.13-10.09-14.13a10,10,0,0,0-8,3.74,14.23,14.23,0,0,0-3.14,9.5V90H268.19V29.21H287v9.62h.23q6.72-11.1,19.54-11.1,20.19,0,20.19,25.05Z"/><path class="cls-1" d="M392.34,90H374.59V81.28h-.24q-6.11,10.22-18.1,10.22-8.85,0-13.93-5t-5.07-13.39q0-17.7,21-20.42l16.5-2.2q0-10-10.8-10A36.92,36.92,0,0,0,343.24,47V32.83A46.85,46.85,0,0,1,354,29.27a56.26,56.26,0,0,1,12.38-1.54q26,0,26,25.94Zm-17.63-24.7v-4.1l-11,1.43q-9.15,1.19-9.15,8.25a6.85,6.85,0,0,0,2.23,5.26,8.59,8.59,0,0,0,6,2,11.11,11.11,0,0,0,8.61-3.66A13.2,13.2,0,0,0,374.71,65.31Z"/><path class="cls-2" d="M34.08,126.79v14.84H27v55.46h7.12v14.84H.65V197.09H7.78V141.63H.65V126.79Z"/><path class="cls-2" d="M63.47,204.86h-.24v7.07H44.47v-90H63.23v38.35h.24q6.94-10.62,19.77-10.62,11.76,0,18.11,8.07t6.36,22.09q0,15.19-7.43,24.4t-19.83,9.2Q69.23,213.41,63.47,204.86Zm-.53-25.65v6.24a14.23,14.23,0,0,0,3.38,9.74A11,11,0,0,0,75,199.05a11.54,11.54,0,0,0,10-5q3.53-5,3.53-14,0-7.55-3.24-11.79A10.92,10.92,0,0,0,76,164a11.92,11.92,0,0,0-9.35,4.22Q62.93,172.45,62.94,179.21Z"/><path class="cls-2" d="M129.38,141.51a11,11,0,0,1-7.78-2.82,9.08,9.08,0,0,1-3-6.92,8.74,8.74,0,0,1,3-6.88,12.66,12.66,0,0,1,15.58,0,8.78,8.78,0,0,1,3,6.88,9.06,9.06,0,0,1-3,7A11.12,11.12,0,0,1,129.38,141.51Zm9.26,70.42H119.88v-60.8h18.76Z"/><path class="cls-2" d="M205,211.93H187.27V203.2H187q-6.12,10.22-18.11,10.21-8.85,0-13.92-5T149.92,195q0-17.7,21-20.43l16.51-2.19q0-10-10.81-10a36.92,36.92,0,0,0-20.66,6.47V154.75a46.74,46.74,0,0,1,10.71-3.56A56.33,56.33,0,0,1,179,149.65q26,0,26,25.94Zm-17.63-24.7v-4.1l-11,1.43q-9.14,1.19-9.14,8.25a6.84,6.84,0,0,0,2.22,5.26,8.6,8.6,0,0,0,6,2,11.1,11.1,0,0,0,8.61-3.65A13.16,13.16,0,0,0,187.39,187.23Z"/><path class="cls-2" d="M238.86,204.86h-.23v35H219.86V151.13h18.77v9.14h.23q6.94-10.62,19.54-10.62,11.81,0,18.25,8.1t6.45,22.06q0,15.19-7.51,24.4t-20,9.2Q244.62,213.41,238.86,204.86Zm-.53-24.93v4.87a15.51,15.51,0,0,0,3.32,10.27,10.84,10.84,0,0,0,8.73,4,11.53,11.53,0,0,0,9.95-5q3.53-5,3.53-14,0-16-12.47-16a11.7,11.7,0,0,0-9.41,4.37Q238.34,172.75,238.33,179.93Z"/><path class="cls-2" d="M304.77,141.51a11,11,0,0,1-7.78-2.82,9.08,9.08,0,0,1-3-6.92,8.74,8.74,0,0,1,3-6.88,12.68,12.68,0,0,1,15.59,0,8.81,8.81,0,0,1,3,6.88,9.08,9.08,0,0,1-3,7A11.15,11.15,0,0,1,304.77,141.51ZM314,211.93H295.27v-60.8H314Z"/><path class="cls-2" d="M388.55,211.93H369.84V178.15q0-14.13-10.09-14.14a10,10,0,0,0-8,3.74,14.26,14.26,0,0,0-3.14,9.5v34.68H329.82v-60.8h18.77v9.62h.23q6.72-11.1,19.54-11.1,20.19,0,20.19,25Z"/><path class="cls-2" d="M454,211.93H436.22V203.2H436q-6.12,10.22-18.11,10.21-8.85,0-13.93-5T398.88,195q0-17.7,21-20.43l16.5-2.19q0-10-10.8-10a36.92,36.92,0,0,0-20.67,6.47V154.75a47,47,0,0,1,10.72-3.56A56.26,56.26,0,0,1,428,149.65q26,0,26,25.94Zm-17.64-24.7v-4.1l-11,1.43q-9.15,1.19-9.15,8.25a6.85,6.85,0,0,0,2.23,5.26,8.58,8.58,0,0,0,6,2,11.1,11.1,0,0,0,8.61-3.65A13.2,13.2,0,0,0,436.34,187.23Z"/></g></g></svg>